<?xml version="1.0" encoding="UTF-8" standalone="no"?>
<!-- Generator: Adobe Illustrator 27.6.1, SVG Export Plug-In . SVG Version: 6.00 Build 0)  -->

<svg
  version="1.1"
  id="Layer_1"
  x="0px"
  y="0px"
  viewBox="0 0 808 808"
  style="enable-background:new 0 0 808 808;"
  xml:space="preserve"
  sodipodi:docname="a_over.svg"
  inkscape:version="1.2.2 (1:1.2.2+202305151914+b0a8486541)"
  xmlns:inkscape="http://www.inkscape.org/namespaces/inkscape"
  xmlns:sodipodi="http://sodipodi.sourceforge.net/DTD/sodipodi-0.dtd"
  xmlns="http://www.w3.org/2000/svg"
><defs
   id="defs10202" /><sodipodi:namedview
   id="namedview10200"
   pagecolor="#ffffff"
   bordercolor="#000000"
   borderopacity="0.25"
   inkscape:showpageshadow="2"
   inkscape:pageopacity="0.0"
   inkscape:pagecheckerboard="true"
   inkscape:deskcolor="#d1d1d1"
   showgrid="true"
   inkscape:zoom="0.13072401"
   inkscape:cx="-149.16923"
   inkscape:cy="321.28757"
   inkscape:window-width="1920"
   inkscape:window-height="1043"
   inkscape:window-x="1920"
   inkscape:window-y="0"
   inkscape:window-maximized="1"
   inkscape:current-layer="Layer_1"><inkscape:grid
     type="xygrid"
     id="grid10292" /></sodipodi:namedview>
<style
   type="text/css"
   id="style10169">
	.st0{fill:#FFFFFF;stroke:#000000;stroke-width:23;stroke-miterlimit:10;}
</style>
<circle
   class="st0"
   cx="404"
   cy="409.06"
   r="351.16"
   id="circle10171"
   style="fill:#e5e5e5;fill-opacity:1" />

<g
   aria-label="A"
   id="text1626"
   style="font-size:540.661px;font-family:Dyuthi;-inkscape-font-specification:Dyuthi;fill:#ffffff;stroke:#ffffff;stroke-width:0"><path
     d="m 359.77423,426.83551 h 85.79825 L 402.80535,308.30192 Z M 463.52412,282.69444 q 0,0 84.21429,233.37126 6.86386,19.00761 -5.0159,35.37528 -11.87976,16.63166 -31.67936,16.63166 h -5.80788 q -12.67174,0 -23.49552,-7.91984 -10.82378,-7.65584 -12.93574,-19.27161 L 455.07629,475.41052 H 355.02232 l -12.67174,64.67869 q -2.37595,12.67174 -13.46372,20.32759 -11.35177,7.65584 -26.39947,7.65584 h -5.80788 q -19.7996,0 -31.41536,-16.63166 -11.61576,-16.36767 -5.27989,-35.37528 l 79.99037,-232.31528 q 6.86386,-20.06359 23.75952,-31.94335 16.89565,-11.87976 34.3193,-11.87976 h 7.39185 q 17.15965,0 34.05531,11.87976 17.15965,11.87976 24.02351,30.88737 z"
     style="fill:#000000;stroke:#000000"
     id="path5144" /></g></svg>
