<?xml version="1.0" encoding="UTF-8" standalone="no"?>
<!-- Generator: Adobe Illustrator 27.6.1, SVG Export Plug-In . SVG Version: 6.00 Build 0)  -->

<svg
  version="1.1"
  id="Layer_1"
  x="0px"
  y="0px"
  viewBox="0 0 808 808"
  style="enable-background:new 0 0 808 808;"
  xml:space="preserve"
  sodipodi:docname="b_over.svg"
  inkscape:version="1.2.2 (1:1.2.2+202305151914+b0a8486541)"
  xmlns:inkscape="http://www.inkscape.org/namespaces/inkscape"
  xmlns:sodipodi="http://sodipodi.sourceforge.net/DTD/sodipodi-0.dtd"
  xmlns="http://www.w3.org/2000/svg"
><defs
   id="defs10202" /><sodipodi:namedview
   id="namedview10200"
   pagecolor="#ffffff"
   bordercolor="#000000"
   borderopacity="0.25"
   inkscape:showpageshadow="2"
   inkscape:pageopacity="0.0"
   inkscape:pagecheckerboard="true"
   inkscape:deskcolor="#d1d1d1"
   showgrid="true"
   inkscape:zoom="0.13072401"
   inkscape:cx="-149.16923"
   inkscape:cy="321.28757"
   inkscape:window-width="1920"
   inkscape:window-height="1043"
   inkscape:window-x="1920"
   inkscape:window-y="0"
   inkscape:window-maximized="1"
   inkscape:current-layer="Layer_1"><inkscape:grid
     type="xygrid"
     id="grid10292" /></sodipodi:namedview>
<style
   type="text/css"
   id="style10169">
	.st0{fill:#FFFFFF;stroke:#000000;stroke-width:23;stroke-miterlimit:10;}
</style>
<circle
   class="st0"
   cx="404"
   cy="409.06"
   r="351.16"
   id="circle10171"
   style="fill:#e6e6e6;fill-opacity:1" />

<g
   aria-label="B"
   id="text1626"
   style="font-size:540.661px;font-family:Dyuthi;-inkscape-font-specification:Dyuthi;fill:#ffffff;stroke:#ffffff;stroke-width:0"><path
     d="m 379.84387,417.31781 h -16.63166 q -4.22391,0 -7.65584,2.90394 -3.43193,2.90394 -3.43193,7.39185 v 82.36632 q 0,3.95992 3.16793,6.59987 3.16794,2.90394 8.18384,2.90394 5.01589,0 26.92745,0.26399 21.64756,0.264 41.18316,-10.03179 19.5356,-10.29579 19.5356,-41.18316 0,-30.88738 -19.79959,-40.91917 -19.7996,-10.29579 -51.47896,-10.29579 z m -27.71943,-118.2696 v 68.9026 q 0,3.95992 2.90394,6.59987 2.90394,2.63994 7.91984,2.90394 h 13.99171 q 29.30341,0 44.6151,-9.50381 15.31168,-9.7678 15.04769,-33.79131 -0.79198,-45.14309 -52.53493,-45.40708 -12.67174,0 -22.17555,0.52799 -9.7678,0.52799 -9.7678,9.7678 z m 122.49351,91.34214 q 0,6.59987 3.43193,7.65585 56.49485,17.15965 56.23085,74.97447 0,40.91917 -36.16726,67.58263 -36.16727,26.66346 -138.06919,26.92745 -2.63995,0 -50.15898,1.84797 -13.99172,0.52799 -25.07949,-8.97582 -11.08778,-9.7678 -11.08778,-24.8155 V 271.85676 q 0,-14.25571 10.29579,-23.75951 10.29579,-9.50381 24.02351,-9.50381 27.98343,0.79198 68.37461,1.31997 72.07054,0.79199 104.54188,17.95164 41.97515,20.32758 41.97515,63.6227 0,43.29512 -45.40708,63.88671 -2.90394,1.58396 -2.90394,5.01589 z"
     style="fill:#000000;stroke:#000000"
     id="path7196" /></g></svg>
