<?xml version="1.0" encoding="UTF-8" standalone="no"?>
<!-- Generator: Adobe Illustrator 27.6.1, SVG Export Plug-In . SVG Version: 6.00 Build 0)  -->

<svg
  version="1.1"
  id="Layer_1"
  x="0px"
  y="0px"
  viewBox="0 0 808 808"
  style="enable-background:new 0 0 808 808;"
  xml:space="preserve"
  sodipodi:docname="c_down.svg"
  inkscape:version="1.2.2 (1:1.2.2+202305151914+b0a8486541)"
  xmlns:inkscape="http://www.inkscape.org/namespaces/inkscape"
  xmlns:sodipodi="http://sodipodi.sourceforge.net/DTD/sodipodi-0.dtd"
  xmlns="http://www.w3.org/2000/svg"
><defs
   id="defs10202" /><sodipodi:namedview
   id="namedview10200"
   pagecolor="#ffffff"
   bordercolor="#000000"
   borderopacity="0.25"
   inkscape:showpageshadow="2"
   inkscape:pageopacity="0.0"
   inkscape:pagecheckerboard="true"
   inkscape:deskcolor="#d1d1d1"
   showgrid="true"
   inkscape:zoom="0.13072401"
   inkscape:cx="-149.16923"
   inkscape:cy="321.28757"
   inkscape:window-width="1920"
   inkscape:window-height="1043"
   inkscape:window-x="1920"
   inkscape:window-y="0"
   inkscape:window-maximized="1"
   inkscape:current-layer="Layer_1"><inkscape:grid
     type="xygrid"
     id="grid10292" /></sodipodi:namedview>
<style
   type="text/css"
   id="style10169">
	.st0{fill:#FFFFFF;stroke:#000000;stroke-width:23;stroke-miterlimit:10;}
</style>
<circle
   class="st0"
   cx="404"
   cy="409.06"
   r="351.16"
   id="circle10171"
   style="fill:#b4b4b4;fill-opacity:1" />

<g
   aria-label="C"
   id="text1626"
   style="font-size:540.661px;font-family:Dyuthi;-inkscape-font-specification:Dyuthi;fill:#ffffff;stroke:#ffffff;stroke-width:0"><path
     d="m 449.27352,572.88615 q -3.16793,0 -7.91983,-0.79199 -81.04636,-3.95992 -124.60547,-49.103 -43.82311,-45.40708 -43.82311,-117.74161 0,-72.33453 47.25504,-117.47761 47.25504,-45.40708 121.17354,-52.00694 7.65584,-1.05598 11.61576,-0.52799 3.95992,-0.52799 20.59158,1.05598 16.63166,1.31997 39.5992,8.97581 20.32758,5.80789 20.32758,27.98344 -0.52799,21.11957 -20.59158,27.98343 -9.50381,4.7519 -26.13547,-2.90394 -14.5197,-6.86386 -33.79131,-6.59987 -41.44716,0 -70.22257,32.73533 -28.77542,33.79132 -29.03941,79.99038 0,46.19906 28.77541,78.93439 29.03941,32.73534 70.48657,32.73534 19.27161,0 34.05531,-6.33587 14.7837,-6.33587 25.34348,-3.16794 h 0.79199 q 22.17555,6.86386 21.91155,29.8314 -0.26399,23.23152 -22.70354,28.77541 -22.17555,5.80788 -47.78303,6.86386 -4.7519,1.05598 -7.65584,0.79199 0,0 -7.65585,0 z"
     style="fill:#000000;stroke:#000000"
     id="path10167" /></g></svg>
