<?xml version="1.0" encoding="UTF-8" standalone="no"?>
<!-- Generator: Adobe Illustrator 27.6.1, SVG Export Plug-In . SVG Version: 6.00 Build 0)  -->

<svg
  version="1.1"
  id="Layer_1"
  x="0px"
  y="0px"
  viewBox="0 0 808 808"
  style="enable-background:new 0 0 808 808;"
  xml:space="preserve"
  sodipodi:docname="d.svg"
  inkscape:version="1.2.2 (1:1.2.2+202305151914+b0a8486541)"
  xmlns:inkscape="http://www.inkscape.org/namespaces/inkscape"
  xmlns:sodipodi="http://sodipodi.sourceforge.net/DTD/sodipodi-0.dtd"
  xmlns="http://www.w3.org/2000/svg"
><defs
   id="defs10202" /><sodipodi:namedview
   id="namedview10200"
   pagecolor="#ffffff"
   bordercolor="#000000"
   borderopacity="0.25"
   inkscape:showpageshadow="2"
   inkscape:pageopacity="0.0"
   inkscape:pagecheckerboard="true"
   inkscape:deskcolor="#d1d1d1"
   showgrid="true"
   inkscape:zoom="0.13072401"
   inkscape:cx="-156.81893"
   inkscape:cy="313.63787"
   inkscape:window-width="1920"
   inkscape:window-height="1043"
   inkscape:window-x="1920"
   inkscape:window-y="0"
   inkscape:window-maximized="1"
   inkscape:current-layer="Layer_1"><inkscape:grid
     type="xygrid"
     id="grid10292" /></sodipodi:namedview>
<style
   type="text/css"
   id="style10169">
	.st0{fill:#FFFFFF;stroke:#000000;stroke-width:23;stroke-miterlimit:10;}
</style>
<circle
   class="st0"
   cx="404"
   cy="409.06"
   r="351.16"
   id="circle10171" />

<g
   aria-label="D"
   id="text1626"
   style="font-size:540.661px;font-family:Dyuthi;-inkscape-font-specification:Dyuthi;fill:#ffffff;stroke:#ffffff;stroke-width:0"><path
     d="m 349.61711,534.28137 q 0,0 0.264,0 50.68697,0 86.32624,-32.73533 32.47134,-29.5674 32.47134,-114.04569 0,-49.103 -32.47134,-78.93439 -35.63927,-32.73534 -86.32624,-32.73534 0,0 -0.264,0 -10.55978,0 -18.21563,7.39185 -7.39185,7.39185 -7.39185,18.74362 V 508.1459 q 0,10.82378 7.39185,18.47963 7.65585,7.65584 18.21563,7.65584 z m -73.9185,-292.50605 q 56.75885,-3.95992 74.71049,-3.95992 88.70219,0 147.04501,45.40707 58.34281,45.40708 58.34281,125.13346 0,71.80654 -49.103,115.62965 -53.06292,46.19906 -147.573,46.19906 -17.42365,0 -82.89432,-3.16793 -10.55978,-0.52799 -17.42364,-7.65585 -6.59987,-7.39185 -6.59987,-17.95163 V 266.85481 q 0,-10.0318 6.86386,-17.42365 6.59987,-6.59987 16.63166,-7.65584 z"
     style="fill:#000000;stroke:#000000"
     id="path12593" /></g></svg>
