<?xml version="1.0" encoding="UTF-8" standalone="no"?>
<!-- Generator: Adobe Illustrator 27.6.1, SVG Export Plug-In . SVG Version: 6.00 Build 0)  -->

<svg
  version="1.1"
  id="Layer_1"
  x="0px"
  y="0px"
  viewBox="0 0 808 808"
  style="enable-background:new 0 0 808 808;"
  xml:space="preserve"
  sodipodi:docname="e_over.svg"
  inkscape:version="1.2.2 (1:1.2.2+202305151914+b0a8486541)"
  xmlns:inkscape="http://www.inkscape.org/namespaces/inkscape"
  xmlns:sodipodi="http://sodipodi.sourceforge.net/DTD/sodipodi-0.dtd"
  xmlns="http://www.w3.org/2000/svg"
><defs
   id="defs10202" /><sodipodi:namedview
   id="namedview10200"
   pagecolor="#ffffff"
   bordercolor="#000000"
   borderopacity="0.25"
   inkscape:showpageshadow="2"
   inkscape:pageopacity="0.0"
   inkscape:pagecheckerboard="true"
   inkscape:deskcolor="#d1d1d1"
   showgrid="true"
   inkscape:zoom="0.13072401"
   inkscape:cx="-149.16923"
   inkscape:cy="321.28757"
   inkscape:window-width="1920"
   inkscape:window-height="1043"
   inkscape:window-x="1920"
   inkscape:window-y="0"
   inkscape:window-maximized="1"
   inkscape:current-layer="Layer_1"><inkscape:grid
     type="xygrid"
     id="grid10292" /></sodipodi:namedview>
<style
   type="text/css"
   id="style10169">
	.st0{fill:#FFFFFF;stroke:#000000;stroke-width:23;stroke-miterlimit:10;}
</style>
<circle
   class="st0"
   cx="404"
   cy="409.06"
   r="351.16"
   id="circle10171"
   style="fill:#e6e6e6;fill-opacity:1" />

<g
   aria-label="E"
   id="text1626"
   style="font-size:540.661px;font-family:Dyuthi;-inkscape-font-specification:Dyuthi;fill:#ffffff;stroke:#ffffff;stroke-width:0"><path
     d="m 374.03662,511.96991 109.29378,-2.11195 q 11.61576,-0.264 20.85557,8.18383 9.23981,8.44783 9.23981,21.64756 v 1.05598 q 0,12.40775 -8.71182,21.38356 -8.71182,8.71183 -21.38356,8.44783 H 341.82927 q -19.27161,0 -33.26332,-13.99171 -13.99172,-13.99172 -13.99172,-33.26333 V 284.67053 q 0,-19.00761 13.46373,-33.26332 13.46372,-13.99172 33.79131,-13.99172 h 134.37327 q 15.04769,0 23.49552,10.55979 12.93574,15.83968 5.54389,30.88737 -7.39185,15.0477 -10.29579,17.42365 -8.97582,7.12785 -19.27161,6.59986 l -101.63793,-4.7519 v 74.97448 l 95.83005,-2.37596 q 11.87976,-0.26399 20.85557,8.18384 8.97582,8.44783 8.97582,21.11957 v 1.05598 q 0,12.67174 -8.97582,21.38356 -8.97581,8.71183 -20.85557,8.44783 l -95.83005,-2.37595 z"
     style="fill:#000000;stroke:#000000"
     id="path13897" /></g></svg>
