<?xml version="1.0" encoding="UTF-8" standalone="no"?>
<!-- Created with Inkscape (http://www.inkscape.org/) -->

<svg
  width="112.61066mm"
  height="19.798199mm"
  viewBox="0 0 112.61066 19.798199"
  version="1.1"
  id="svg5"
  inkscape:version="1.2.2 (1:1.2.2+202305151914+b0a8486541)"
  sodipodi:docname="excellent.svg"
  xmlns:inkscape="http://www.inkscape.org/namespaces/inkscape"
  xmlns:sodipodi="http://sodipodi.sourceforge.net/DTD/sodipodi-0.dtd"
  xmlns="http://www.w3.org/2000/svg"
>
  <sodipodi:namedview
     id="namedview7"
     pagecolor="#ffffff"
     bordercolor="#000000"
     borderopacity="0.25"
     inkscape:showpageshadow="2"
     inkscape:pageopacity="0.0"
     inkscape:pagecheckerboard="0"
     inkscape:deskcolor="#d1d1d1"
     inkscape:document-units="mm"
     showgrid="false"
     inkscape:zoom="0.75277076"
     inkscape:cx="276.97675"
     inkscape:cy="317.49373"
     inkscape:window-width="1920"
     inkscape:window-height="1043"
     inkscape:window-x="1920"
     inkscape:window-y="0"
     inkscape:window-maximized="1"
     inkscape:current-layer="layer1" />
  <defs
     id="defs2" />
  <g
     inkscape:label="Layer 1"
     inkscape:groupmode="layer"
     id="layer1"
     transform="translate(-5.7701659,-8.2457453)">
    <g
       aria-label="Excellent!"
       id="text236"
       style="font-size:30.9982px;font-family:Dyuthi;-inkscape-font-specification:'Dyuthi, Normal';opacity:1;stroke-width:0">
      <path
         d="m 10.326054,24.441094 6.266237,-0.121087 q 0.665977,-0.01514 1.195732,0.469211 0.529754,0.484347 0.529754,1.241139 v 0.06054 q 0,0.711385 -0.499483,1.226003 -0.499483,0.499483 -1.226003,0.484347 H 8.4794812 q -1.1049163,0 -1.9071158,-0.802199 -0.8021995,-0.8022 -0.8021995,-1.907116 V 11.409136 q 0,-1.089781 0.7719278,-1.907116 0.7719278,-0.8021995 1.9373875,-0.8021995 h 7.7041428 q 0.862742,0 1.347089,0.6054336 0.741656,0.9081499 0.317853,1.7708929 -0.423804,0.862743 -0.590298,0.998966 -0.514618,0.408667 -1.104916,0.378396 l -5.827298,-0.272445 v 4.298578 l 5.494309,-0.136223 q 0.681113,-0.01514 1.195732,0.469211 0.514618,0.484347 0.514618,1.210868 v 0.06054 q 0,0.72652 -0.514618,1.226003 -0.514619,0.499483 -1.195732,0.484347 l -5.494309,-0.136223 z"
         id="path2492" />
      <path
         d="m 29.745335,13.815734 q 0,0 0.06054,0 1.301682,0 1.801165,1.104917 0.499482,1.104916 -0.25731,2.149289 l -2.815266,3.920182 2.815266,3.556923 q 0.8022,1.014101 0.25731,2.134153 -0.54489,1.135188 -1.801165,1.120052 h -0.06054 q -1.074644,0 -1.680078,-0.938422 l -2.179561,-3.345021 -2.164425,3.345021 q -0.605433,0.938422 -1.71035,0.938422 0,0 -0.03027,0 -1.256275,0 -1.786029,-1.150324 -0.544891,-1.150324 0.211901,-2.103881 l 2.830402,-3.556923 -2.830402,-3.920182 q -0.741656,-1.029237 -0.196765,-2.149289 0.529754,-1.120053 1.770893,-1.104917 h 0.03027 q 1.120053,0 1.71035,0.908151 l 2.164425,3.360156 2.179561,-3.360156 q 0.590298,-0.908151 1.680078,-0.908151 z"
         id="path2494" />
      <path
         d="m 44.578458,26.0909 q 0,0 0,0.06054 0,0.529754 -0.272445,0.938422 -0.620569,0.832471 -2.98176,0.832471 -3.148255,0 -5.388359,-2.043339 -2.240104,-2.043338 -2.240104,-4.934283 0,-2.890946 2.240104,-4.934284 2.240104,-2.043338 5.388359,-2.043338 1.104916,0.03027 2.149289,0.302716 1.104916,0.363261 1.104916,1.498449 v 0.10595 q 0,0.771928 -0.54489,1.210868 -0.605433,0.438939 -1.725485,0.227037 -1.120053,-0.227037 -2.542821,0.332989 -0.8022,0.302716 -1.271411,1.150323 -0.484347,0.862743 -0.484347,1.876845 v 0.166494 q 0,1.543855 1.044373,2.663908 1.044373,1.104916 2.452006,1.104916 0.575162,0.06054 1.271411,-0.06054 0.696248,-0.09082 1.256274,0.393531 0.54489,0.454076 0.54489,1.150324 z"
         id="path2496" />
      <path
         d="m 53.039394,16.555321 q -1.074645,0 -2.119018,0.923286 -0.665977,0.590298 -0.923286,1.922252 h 6.629498 q -0.499483,-1.755757 -1.483312,-2.300648 -0.98383,-0.54489 -2.103882,-0.54489 z m 6.705177,4.268307 v 0.01514 q 0,1.27141 -1.210867,1.27141 h -8.430663 q 0.438939,1.377362 0.893015,1.816301 1.680078,1.543856 4.480208,0.287581 l 1.558992,-0.696249 q 1.014101,-0.454075 1.558991,0.317853 0.54489,0.771928 0.36326,1.589263 l -0.03027,0.01514 q -0.151358,0.681113 -1.392497,1.362226 -1.801165,0.998965 -4.964555,0.968693 -2.270376,0 -4.389394,-2.028202 -2.103881,-2.028203 -2.103881,-4.919148 0,-2.906081 2.028202,-4.964555 2.043339,-2.043339 4.813197,-1.997931 2.769859,0.04541 4.798061,1.982795 2.028203,1.937387 2.028203,4.979691 z"
         id="path2498" />
      <path
         d="m 65.314558,25.54601 q 0,0.953558 -0.650841,1.604399 -0.650841,0.650841 -1.619535,0.650841 h -0.04541 q -0.908151,0 -1.574128,-0.650841 Q 60.75867,26.484432 60.75867,25.54601 V 11.076147 q 0,-0.938422 0.650841,-1.5892629 0.635706,-0.6508411 1.589264,-0.6508411 h 0.04541 q 0.953558,0 1.619535,0.6508411 0.665977,0.6508409 0.650841,1.5892629 z"
         id="path2500" />
      <path
         d="m 71.414301,25.54601 q 0,0.953558 -0.650841,1.604399 -0.650841,0.650841 -1.619535,0.650841 h -0.04541 q -0.908151,0 -1.574128,-0.650841 Q 66.85841,26.484432 66.85841,25.54601 V 11.076147 q 0,-0.938422 0.650841,-1.5892629 Q 68.14496,8.836043 69.098518,8.836043 h 0.04541 q 0.953558,0 1.619535,0.6508411 0.665977,0.6508409 0.650841,1.5892629 z"
         id="path2502" />
      <path
         d="m 79.920646,16.555321 q -1.074644,0 -2.119017,0.923286 -0.665977,0.590298 -0.923287,1.922252 h 6.629498 q -0.499483,-1.755757 -1.483312,-2.300648 -0.98383,-0.54489 -2.103882,-0.54489 z m 6.705177,4.268307 v 0.01514 q 0,1.27141 -1.210867,1.27141 h -8.430663 q 0.43894,1.377362 0.893015,1.816301 1.680078,1.543856 4.480208,0.287581 l 1.558992,-0.696249 q 1.014101,-0.454075 1.558991,0.317853 0.544891,0.771928 0.36326,1.589263 l -0.03027,0.01514 q -0.151359,0.681113 -1.392497,1.362226 -1.801165,0.998965 -4.964556,0.968693 -2.270376,0 -4.389393,-2.028202 -2.103882,-2.028203 -2.103882,-4.919148 0,-2.906081 2.028202,-4.964555 2.043339,-2.043339 4.813197,-1.997931 2.769859,0.04541 4.798062,1.982795 2.028202,1.937387 2.028202,4.979691 z"
         id="path2504" />
      <path
         d="m 102.24601,20.657134 q 0,0 0.0303,5.479174 0,0.862743 -0.63571,1.498448 -0.43894,0.423803 -1.52872,0.408667 h -0.0151 q -1.074646,0 -1.498449,-0.408667 -0.635706,-0.605434 -0.635706,-1.498448 v -5.736484 q 0,-2.164425 -1.316818,-2.815266 -1.331954,-0.650841 -2.860673,0.272445 -1.52872,0.923287 -1.453041,1.846573 v 6.432732 q 0,0.893014 -0.605434,1.498448 -0.423803,0.423803 -1.498448,0.408667 0,0 -0.07568,0 -1.074645,0 -1.498448,-0.408667 -0.635705,-0.635705 -0.635705,-1.498448 V 15.374726 q 0,-0.590298 0.438939,-0.998966 0.438939,-0.408667 0.968694,-0.408667 h 1.574127 q 0.590298,0 0.98383,0.438939 0.393531,0.423804 0.393531,0.938422 v 0.03027 q 2.179561,-1.286547 3.23907,-1.468177 3.632602,-0.620569 5.569991,1.876844 1.04437,1.377362 1.05951,4.873741 z"
         id="path2506" />
      <path
         d="m 109.51121,21.232296 q 0,2.315783 1.27141,2.98176 0.98383,0.54489 0.46921,2.043338 -0.51462,1.543856 -1.63467,1.543856 -1.8163,0 -2.92122,-2.149289 -0.93842,-1.846573 -0.93842,-4.69211 V 17.25157 h -0.54489 q -0.62057,0 -1.02924,-0.393532 -0.4238,-0.378396 -0.40866,-1.014101 v -0.03027 q 0,-0.590298 0.40866,-1.014101 0.40867,-0.423804 1.02924,-0.423804 h 0.54489 v -1.543855 q 0,-1.059509 0.83247,-1.680079 0.45408,-0.36326 1.28655,-0.36326 h 0.0605 q 0.51462,0 1.04438,0.665977 0.52975,0.665977 0.52975,1.377362 v 1.543855 h 1.27141 q 0.56003,0 0.98383,0.43894 0.4238,0.438939 0.4238,0.998965 v 0.03027 q 0,0.650841 -0.40866,1.029237 -0.40867,0.378396 -0.99897,0.378396 h -1.27141 z"
         id="path2508" />
      <path
         d="m 118.04783,10.122589 q 0,0 -0.46921,9.066368 -0.0606,0.711385 -0.54489,1.180596 -0.52976,0.469211 -1.24114,0.469211 -0.71139,0 -1.25628,-0.469211 -0.49948,-0.469211 -0.54489,-1.180596 l -0.46921,-9.066368 q -0.0303,-0.7719274 0.49948,-1.3168176 0.49949,-0.5448903 1.27141,-0.5600261 h 0.98383 q 0.77193,0 1.27141,0.5600261 0.56003,0.5448902 0.49949,1.3168176 z m -0.43894,16.906733 q -0.71139,0.771928 -1.80117,0.771928 -1.07464,0 -1.84657,-0.756792 -0.77193,-0.756792 -0.77193,-1.816301 0,-1.059508 0.77193,-1.831436 0.77193,-0.787064 1.84657,-0.787064 1.07465,0 1.80117,0.771928 0.77193,0.741656 0.77193,1.831436 0,1.074645 -0.77193,1.816301 z"
         id="path2510" />
    </g>
  </g>
</svg>
