<?xml version="1.0" encoding="UTF-8" standalone="no"?>
<!-- Generator: Adobe Illustrator 27.6.1, SVG Export Plug-In . SVG Version: 6.00 Build 0)  -->

<svg
  version="1.1"
  id="Layer_1"
  x="0px"
  y="0px"
  viewBox="0 0 808 808"
  style="enable-background:new 0 0 808 808;"
  xml:space="preserve"
  sodipodi:docname="f_over.svg"
  inkscape:version="1.2.2 (1:1.2.2+202305151914+b0a8486541)"
  xmlns:inkscape="http://www.inkscape.org/namespaces/inkscape"
  xmlns:sodipodi="http://sodipodi.sourceforge.net/DTD/sodipodi-0.dtd"
  xmlns="http://www.w3.org/2000/svg"
><defs
   id="defs10202" /><sodipodi:namedview
   id="namedview10200"
   pagecolor="#ffffff"
   bordercolor="#000000"
   borderopacity="0.25"
   inkscape:showpageshadow="2"
   inkscape:pageopacity="0.0"
   inkscape:pagecheckerboard="true"
   inkscape:deskcolor="#d1d1d1"
   showgrid="true"
   inkscape:zoom="0.13072401"
   inkscape:cx="-61.197633"
   inkscape:cy="321.28757"
   inkscape:window-width="1920"
   inkscape:window-height="1043"
   inkscape:window-x="1920"
   inkscape:window-y="0"
   inkscape:window-maximized="1"
   inkscape:current-layer="Layer_1"><inkscape:grid
     type="xygrid"
     id="grid10292" /></sodipodi:namedview>
<style
   type="text/css"
   id="style10169">
	.st0{fill:#FFFFFF;stroke:#000000;stroke-width:23;stroke-miterlimit:10;}
</style>
<circle
   class="st0"
   cx="404"
   cy="409.06"
   r="351.16"
   id="circle10171"
   style="fill:#e6e6e6;fill-opacity:1" />

<g
   aria-label="F"
   id="text1626"
   style="font-size:540.661px;font-family:Dyuthi;-inkscape-font-specification:Dyuthi;fill:#000000;stroke:#ffffff;stroke-width:0"
   transform="translate(4.9999999e-6,2.5e-5)"><path
     d="m 376.94054,423.40358 v 107.97381 q 0,16.36766 -11.35177,27.98343 -11.35177,11.61576 -27.98343,11.61576 h -0.52799 q -16.10367,0 -27.45544,-11.61576 -11.61576,-11.61577 -11.61576,-27.98343 V 286.12637 q 0,-20.06359 14.5197,-34.5833 14.51971,-14.5197 34.5833,-14.5197 h 131.99732 q 14.5197,0 23.23152,11.08777 5.80789,7.12786 5.80789,18.47963 v 11.35177 q 0,8.18383 -9.76781,15.83968 -9.7678,7.65584 -19.2716,7.12785 l -102.16593,-4.7519 v 76.55844 l 103.2219,-4.7519 q 11.61577,-0.52799 20.59159,8.71182 8.97581,9.23981 9.23981,21.11957 v 0.52799 q 0,12.40775 -9.50381,21.38357 -9.50381,8.97581 -20.32759,8.44783 z"
     id="path14893"
     style="fill:#000000" /></g></svg>
