<?xml version="1.0" encoding="UTF-8" standalone="no"?>
<!-- Generator: Adobe Illustrator 27.6.1, SVG Export Plug-In . SVG Version: 6.00 Build 0)  -->

<svg
  version="1.1"
  id="Layer_1"
  x="0px"
  y="0px"
  viewBox="0 0 500 500"
  style="enable-background:new 0 0 500 500;"
  xml:space="preserve"
  sodipodi:docname="fingering_off.svg"
  inkscape:version="1.2.2 (1:1.2.2+202305151914+b0a8486541)"
  xmlns:inkscape="http://www.inkscape.org/namespaces/inkscape"
  xmlns:sodipodi="http://sodipodi.sourceforge.net/DTD/sodipodi-0.dtd"
  xmlns="http://www.w3.org/2000/svg"
><defs
   id="defs48459" /><sodipodi:namedview
   id="namedview48457"
   pagecolor="#ffffff"
   bordercolor="#000000"
   borderopacity="0.25"
   inkscape:showpageshadow="2"
   inkscape:pageopacity="0.0"
   inkscape:pagecheckerboard="0"
   inkscape:deskcolor="#d1d1d1"
   showgrid="false"
   inkscape:zoom="1.1950105"
   inkscape:cx="-18.40988"
   inkscape:cy="242.67569"
   inkscape:window-width="1920"
   inkscape:window-height="1043"
   inkscape:window-x="1920"
   inkscape:window-y="0"
   inkscape:window-maximized="1"
   inkscape:current-layer="g48649" />
<style
   type="text/css"
   id="style48440">
	.st0{fill:#CAC7C6;stroke:#000000;stroke-width:6.518;stroke-miterlimit:10;}
	.st1{fill:#006699;stroke:#FFFFFF;stroke-width:6.518;stroke-miterlimit:10;}
	.st2{fill:none;stroke:#FFFFFF;stroke-width:11;stroke-miterlimit:10;}
</style>



<g
   id="g48649"
   transform="matrix(0.81474251,0,0,0.81474251,3.5196876,5.548731)"><g
     id="g6148"
     transform="translate(-6.1369077)"><g
       id="g48604"><g
         id="g51331"
         transform="translate(-9.8190532)"
         style="stroke-width:12.2738;stroke-dasharray:none"><g
           id="g914"
           transform="translate(11.955961)"><path
             style="fill:#cac7c6;stroke:#000000;stroke-width:12.2738;stroke-miterlimit:10;stroke-dasharray:none"
             d="M -0.32,28.98 H 302.4 c 149.7,0 271.05,121.35 271.05,271.05 v 0 c 0,149.71 -121.36,271.06 -271.05,271.06 H -0.32"
             id="path48554"
             sodipodi:nodetypes="cssssc" /><circle
             class="st1"
             cx="302.51001"
             cy="301.34"
             r="238.28"
             id="circle48556"
             style="fill:#ffffff;stroke:#000000;stroke-width:12.2738;stroke-miterlimit:10;stroke-dasharray:none" /></g></g></g><path
       class="st2"
       d="m 360.74377,456.46987 -0.0284,-4.17959 c 0.98567,-15.10719 4.37863,-29.9585 10.05567,-43.99473 l 15.30618,-37.86276 c 5.98033,-14.79444 9.21217,-30.56506 9.53441,-46.52523 l 1.49745,-74.44606 c 0.18007,-8.97522 -7.05129,-16.34875 -16.02652,-16.34875 h -0.76768 c -7.79053,0 -15.74219,5.45906 -17.07852,13.13587 l -1.6017,75.23269 2.46416,-118.35549 c 0.23693,-11.23088 -10.99395,-21.2202 -22.21535,-21.57087 -9.47754,-0.30328 -18.11158,7.13658 -20.7179,16.25397 v 0 l 0.0379,108.08184 -1.0141,-134.36305 c -0.0758,-10.6717 -8.74776,-19.27731 -19.41947,-19.27731 -10.72857,0 -19.41947,8.6909 -19.41947,19.41948 v 133.05514 l -0.65395,-105.96834 c -0.61604,-10.24522 -10.57693,-19.77014 -23.26736,-19.43843 -10.88969,0.28432 -21.49505,9.61022 -21.24864,20.49991 l 3.47826,150.20001 c 0.0284,1.23208 -1.58275,1.72492 -2.24618,0.68239 L 196.13789,285.5804 c -4.54922,-7.18398 -14.18788,-9.10792 -21.14439,-4.21751 -5.20317,3.65833 -7.51568,10.20731 -5.75286,16.31085 7.83792,27.1721 14.58593,44.70554 28.48,69.45139 6.87121,12.24498 18.49067,27.01098 27.73127,37.58791 10.11253,11.57208 19.42895,25.97793 21.80781,42.21295 l -0.019,9.60075"
       id="path48558"
       style="fill:none;stroke:#000000;stroke-width:17.4488;stroke-miterlimit:10;stroke-dasharray:none" /></g></g></svg>
