<?xml version="1.0" encoding="UTF-8" standalone="no"?>
<!-- Generator: Adobe Illustrator 27.6.1, SVG Export Plug-In . SVG Version: 6.00 Build 0)  -->

<svg
  version="1.1"
  id="Layer_1"
  x="0px"
  y="0px"
  viewBox="0 0 808 808"
  style="enable-background:new 0 0 808 808;"
  xml:space="preserve"
  sodipodi:docname="fullscreen_off.svg"
  inkscape:version="1.2.2 (1:1.2.2+202305151914+b0a8486541)"
  xmlns:inkscape="http://www.inkscape.org/namespaces/inkscape"
  xmlns:sodipodi="http://sodipodi.sourceforge.net/DTD/sodipodi-0.dtd"
  xmlns="http://www.w3.org/2000/svg"
><defs
   id="defs21776" /><sodipodi:namedview
   id="namedview21774"
   pagecolor="#ffffff"
   bordercolor="#000000"
   borderopacity="0.25"
   inkscape:showpageshadow="2"
   inkscape:pageopacity="0.0"
   inkscape:pagecheckerboard="true"
   inkscape:deskcolor="#d1d1d1"
   showgrid="false"
   inkscape:zoom="1.0457921"
   inkscape:cx="240.48757"
   inkscape:cy="404.47811"
   inkscape:window-width="1920"
   inkscape:window-height="1043"
   inkscape:window-x="1920"
   inkscape:window-y="0"
   inkscape:window-maximized="1"
   inkscape:current-layer="Layer_1" />
<style
   type="text/css"
   id="style21743">
	.st0{fill:#FFFFFF;stroke:#000000;stroke-width:23;stroke-miterlimit:10;}
</style>
<circle
   class="st0"
   cx="404"
   cy="409.06"
   r="351.16"
   id="circle21745"
   style="fill:#025f94;fill-opacity:1;stroke:#ffffff;stroke-opacity:1" />

<g
   id="g21817"
   transform="matrix(0.87305834,0,0,0.87305834,50.850695,48.576583)">
	<g
   id="g21801">
		<g
   id="g21793">

				<rect
   x="214.10001"
   y="200.92"
   transform="matrix(-0.7071,0.7071,-0.7071,-0.7071,614.6235,260.6697)"
   class="st1"
   width="78.459999"
   height="113.42"
   id="rect21789"
   style="fill:#ffffff" />
			<polygon
   class="st1"
   points="290.34,361.98 224.54,361.41 289.77,296.18 355,230.95 355.57,296.75 356.13,362.54 "
   id="polygon21791"
   style="fill:#ffffff" />
		</g>
		<g
   id="g21799">

				<rect
   x="515.45001"
   y="203.39999"
   transform="matrix(-0.7071,-0.7071,0.7071,-0.7071,762.9646,836.2469)"
   class="st1"
   width="78.459999"
   height="113.42"
   id="rect21795"
   style="fill:#ffffff" />
			<polygon
   class="st1"
   points="450.33,297.12 450.89,231.32 516.12,296.55 581.35,361.79 515.56,362.35 449.76,362.92 "
   id="polygon21797"
   style="fill:#ffffff" />
		</g>
	</g>
	<g
   id="g21815">
		<g
   id="g21807">

				<rect
   x="515.45001"
   y="495.16"
   transform="matrix(0.7071,-0.7071,0.7071,0.7071,-227.7736,553.8545)"
   class="st1"
   width="78.459999"
   height="113.42"
   id="rect21803"
   style="fill:#ffffff" />
			<polygon
   class="st1"
   points="517.66,447.52 583.46,448.09 518.23,513.32 453,578.55 452.43,512.76 451.87,446.96 "
   id="polygon21805"
   style="fill:#ffffff" />
		</g>
		<g
   id="g21813">

				<rect
   x="214.10001"
   y="492.67999"
   transform="matrix(0.7071,0.7071,-0.7071,0.7071,462.6771,-18.2144)"
   class="st1"
   width="78.459999"
   height="113.42"
   id="rect21809"
   style="fill:#ffffff" />
			<polygon
   class="st1"
   points="357.67,512.38 357.11,578.18 291.88,512.95 226.65,447.72 292.44,447.15 358.24,446.58 "
   id="polygon21811"
   style="fill:#ffffff" />
		</g>
	</g>
</g></svg>
