<?xml version="1.0" encoding="UTF-8" standalone="no"?>
<!-- Generator: Adobe Illustrator 27.6.1, SVG Export Plug-In . SVG Version: 6.00 Build 0)  -->

<svg
  version="1.1"
  id="Layer_1"
  x="0px"
  y="0px"
  viewBox="0 0 808 808"
  style="enable-background:new 0 0 808 808;"
  xml:space="preserve"
  sodipodi:docname="fullscreen_on_over.svg"
  inkscape:version="1.3.2 (1:1.3.2+202311252150+091e20ef0f)"
  xmlns:inkscape="http://www.inkscape.org/namespaces/inkscape"
  xmlns:sodipodi="http://sodipodi.sourceforge.net/DTD/sodipodi-0.dtd"
  xmlns="http://www.w3.org/2000/svg"
><defs
   id="defs5" /><sodipodi:namedview
   id="namedview5"
   pagecolor="#ffffff"
   bordercolor="#000000"
   borderopacity="0.25"
   inkscape:showpageshadow="2"
   inkscape:pageopacity="0.0"
   inkscape:pagecheckerboard="true"
   inkscape:deskcolor="#d1d1d1"
   inkscape:zoom="1.0037129"
   inkscape:cx="403.99999"
   inkscape:cy="403.99999"
   inkscape:window-width="1850"
   inkscape:window-height="1011"
   inkscape:window-x="0"
   inkscape:window-y="0"
   inkscape:window-maximized="1"
   inkscape:current-layer="Layer_1" />
<style
   type="text/css"
   id="style1">
	.st0{fill:#FFFFFF;stroke:#000000;stroke-width:23;stroke-miterlimit:10;}
</style>
<circle
   class="st0"
   cx="404"
   cy="409.06"
   r="351.16"
   id="circle1"
   style="opacity:1;fill:#e6e6e6;fill-opacity:1;stroke:#000000;stroke-opacity:1;stroke-dasharray:none;stroke-dashoffset:0;stroke-width:23" />
<g
   id="g5">
	<g
   id="g1">

			<rect
   x="453.46"
   y="433.95"
   transform="matrix(-0.7071 0.7071 -0.7071 -0.7071 1188.0131 489.2284)"
   width="78.46"
   height="113.42"
   id="rect1" />
		<polygon
   points="595.49,595.58 529.7,595.01 463.9,594.44 529.13,529.21 594.36,463.98 594.93,529.78   "
   id="polygon1" />
	</g>
	<g
   id="g2">

			<rect
   x="278.19"
   y="436.43"
   transform="matrix(-0.7071 -0.7071 0.7071 -0.7071 193.1715 1066.2954)"
   width="78.46"
   height="113.42"
   id="rect2" />
		<polygon
   points="212.51,595.95 213.07,530.15 213.64,464.36 278.87,529.59 344.1,594.82 278.3,595.38   "
   id="polygon2" />
	</g>
	<g
   id="g3">

			<rect
   x="276.09"
   y="259.59"
   transform="matrix(0.7071 -0.7071 0.7071 0.7071 -131.3071 315.6055)"
   width="78.46"
   height="113.42"
   id="rect3" />
		<polygon
   points="212.51,211.39 278.3,211.95 344.1,212.52 278.87,277.75 213.64,342.98 213.07,277.19   "
   id="polygon3" />
	</g>
	<g
   id="g4">

			<rect
   x="451.35"
   y="257.11"
   transform="matrix(0.7071 0.7071 -0.7071 0.7071 365.5935 -254.9737)"
   width="78.46"
   height="113.42"
   id="rect4" />
		<polygon
   points="595.49,211.01 594.93,276.81 594.36,342.61 529.13,277.38 463.9,212.15 529.7,211.58   "
   id="polygon4" />
	</g>
</g>
</svg>
