<?xml version="1.0" encoding="utf-8"?>
<!-- Generator: Adobe Illustrator 27.6.1, SVG Export Plug-In . SVG Version: 6.00 Build 0)  -->
<svg version="1.1" id="Layer_1" xmlns="http://www.w3.org/2000/svg" x="0px" y="0px"
     viewBox="0 0 808 808" style="enable-background:new 0 0 808 808;" xml:space="preserve">
<style type="text/css">
	.st0{fill:#FFFFFF;stroke:#000000;stroke-width:23;stroke-miterlimit:10;}
</style>
<circle class="st0" cx="404" cy="409.06" r="351.16"/>
<g>
	<g>

			<rect x="453.46" y="433.95" transform="matrix(-0.7071 0.7071 -0.7071 -0.7071 1188.0131 489.2284)" width="78.46" height="113.42"/>
		<polygon points="595.49,595.58 529.7,595.01 463.9,594.44 529.13,529.21 594.36,463.98 594.93,529.78 		"/>
	</g>
	<g>

			<rect x="278.19" y="436.43" transform="matrix(-0.7071 -0.7071 0.7071 -0.7071 193.1715 1066.2954)" width="78.46" height="113.42"/>
		<polygon points="212.51,595.95 213.07,530.15 213.64,464.36 278.87,529.59 344.1,594.82 278.3,595.38 		"/>
	</g>
	<g>

			<rect x="276.09" y="259.59" transform="matrix(0.7071 -0.7071 0.7071 0.7071 -131.3071 315.6055)" width="78.46" height="113.42"/>
		<polygon points="212.51,211.39 278.3,211.95 344.1,212.52 278.87,277.75 213.64,342.98 213.07,277.19 		"/>
	</g>
	<g>

			<rect x="451.35" y="257.11" transform="matrix(0.7071 0.7071 -0.7071 0.7071 365.5935 -254.9737)" width="78.46" height="113.42"/>
		<polygon points="595.49,211.01 594.93,276.81 594.36,342.61 529.13,277.38 463.9,212.15 529.7,211.58 		"/>
	</g>
</g>
</svg>
