<?xml version="1.0" encoding="UTF-8" standalone="no"?>
<!-- Generator: Adobe Illustrator 27.6.1, SVG Export Plug-In . SVG Version: 6.00 Build 0)  -->

<svg
  version="1.1"
  id="Layer_1"
  x="0px"
  y="0px"
  viewBox="0 0 808 808"
  style="enable-background:new 0 0 808 808;"
  xml:space="preserve"
  sodipodi:docname="g_over.svg"
  inkscape:version="1.2.2 (1:1.2.2+202305151914+b0a8486541)"
  xmlns:inkscape="http://www.inkscape.org/namespaces/inkscape"
  xmlns:sodipodi="http://sodipodi.sourceforge.net/DTD/sodipodi-0.dtd"
  xmlns="http://www.w3.org/2000/svg"
><defs
   id="defs10202" /><sodipodi:namedview
   id="namedview10200"
   pagecolor="#ffffff"
   bordercolor="#000000"
   borderopacity="0.25"
   inkscape:showpageshadow="2"
   inkscape:pageopacity="0.0"
   inkscape:pagecheckerboard="true"
   inkscape:deskcolor="#d1d1d1"
   showgrid="true"
   inkscape:zoom="0.13072401"
   inkscape:cx="-156.81893"
   inkscape:cy="313.63787"
   inkscape:window-width="1920"
   inkscape:window-height="1043"
   inkscape:window-x="1920"
   inkscape:window-y="0"
   inkscape:window-maximized="1"
   inkscape:current-layer="Layer_1"><inkscape:grid
     type="xygrid"
     id="grid10292" /></sodipodi:namedview>
<style
   type="text/css"
   id="style10169">
	.st0{fill:#FFFFFF;stroke:#000000;stroke-width:23;stroke-miterlimit:10;}
</style>
<circle
   class="st0"
   cx="404"
   cy="409.06"
   r="351.16"
   id="circle10171"
   style="fill:#e6e6e6;fill-opacity:1" />

<g
   aria-label="G"
   id="text1626"
   style="font-size:540.661px;font-family:Dyuthi;-inkscape-font-specification:Dyuthi;fill:#ffffff;stroke:#ffffff;stroke-width:0"><path
     d="m 449.6675,382.74843 q 0,0 73.9185,0 13.46372,-0.52799 22.96753,9.23982 9.50381,9.5038 9.23981,22.96753 v 98.99799 q -0.52799,18.21563 -12.14375,32.73533 -11.61577,13.99172 -25.07949,16.63166 -13.46373,2.63995 -34.84729,6.07188 -21.38357,3.69592 -47.51904,3.69592 -88.17421,0 -135.69324,-45.67107 -47.78303,-45.67107 -48.31102,-118.53359 0.52799,-81.31035 54.91089,-127.7734 54.38289,-46.19906 137.27721,-46.19906 19.2716,0 77.08643,4.7519 11.61576,1.05598 18.47962,10.55979 12.40775,19.2716 4.22392,42.50313 l -0.52799,0.52799 q -9.50381,23.49552 -32.20735,21.64756 l -73.6545,-7.39185 q -59.66279,-5.80788 -83.4223,19.7996 -34.31931,36.16726 -29.30341,86.85423 3.95992,42.50314 36.69526,71.80654 32.99932,29.30341 78.93439,29.30341 h 13.19973 q 8.97582,0 17.15965,-8.18383 8.18384,-8.18384 8.18384,-16.89566 v -38.54322 q 0,-8.71182 -5.80788,-13.46372 -6.86386,-7.65585 -12.67175,-4.75191 l -15.31169,7.65585 q -18.21563,8.71182 -24.02351,-13.46373 v -0.52799 q -5.80788,-19.27161 4.75191,-32.73533 8.44782,-11.61577 23.49552,-11.61577 z"
     style="fill:#000000;stroke:#000000"
     id="path2190" /></g></svg>
