<?xml version="1.0" encoding="UTF-8" standalone="no"?>
<!-- Created with Inkscape (http://www.inkscape.org/) -->

<svg
  width="71.623032mm"
  height="19.971788mm"
  viewBox="0 0 71.623032 19.971788"
  version="1.1"
  id="svg5"
  sodipodi:docname="good.svg"
  inkscape:version="1.2.2 (1:1.2.2+202305151914+b0a8486541)"
  xmlns:inkscape="http://www.inkscape.org/namespaces/inkscape"
  xmlns:sodipodi="http://sodipodi.sourceforge.net/DTD/sodipodi-0.dtd"
  xmlns="http://www.w3.org/2000/svg"
>
  <sodipodi:namedview
     id="namedview7"
     pagecolor="#ffffff"
     bordercolor="#000000"
     borderopacity="0.25"
     inkscape:showpageshadow="2"
     inkscape:pageopacity="0.0"
     inkscape:pagecheckerboard="0"
     inkscape:deskcolor="#d1d1d1"
     inkscape:document-units="mm"
     showgrid="false"
     inkscape:zoom="0.75277076"
     inkscape:cx="203.91334"
     inkscape:cy="-219.19023"
     inkscape:window-width="1920"
     inkscape:window-height="1043"
     inkscape:window-x="1920"
     inkscape:window-y="0"
     inkscape:window-maximized="1"
     inkscape:current-layer="layer1" />
  <defs
     id="defs2" />
  <g
     inkscape:label="Layer 1"
     inkscape:groupmode="layer"
     id="layer1"
     transform="translate(-12.210301,-93.921871)">
    <g
       aria-label="Good!"
       id="text1008"
       style="font-size:30.9983px;font-family:Dyuthi;-inkscape-font-specification:'Dyuthi, Normal';opacity:1;stroke-width:0">
      <path
         d="m 23.531946,102.91259 q 0,0 4.238049,0 0.771931,-0.0303 1.316823,0.52976 0.544892,0.54489 0.529756,1.31682 v 5.67596 q -0.03027,1.04437 -0.696251,1.87685 -0.665979,0.8022 -1.43791,0.95356 -0.77193,0.15136 -1.997937,0.34812 -1.226007,0.21191 -2.72446,0.21191 -5.055387,0 -7.779847,-2.61851 -2.739596,-2.61851 -2.769868,-6.79602 0.03027,-4.661852 3.148265,-7.325768 3.117993,-2.648781 7.870663,-2.648781 1.104919,0 4.419679,0.272446 0.665979,0.06054 1.059512,0.605436 0.711387,1.10492 0.242175,2.436878 l -0.03027,0.03027 q -0.544892,1.347094 -1.846579,1.241143 l -4.222913,-0.423805 q -3.420711,-0.33299 -4.782941,1.135192 -1.967665,2.073619 -1.680083,4.979709 0.227038,2.43688 2.103888,4.11696 1.891986,1.68009 4.525631,1.68009 h 0.756795 q 0.51462,0 0.983832,-0.46922 0.469213,-0.46921 0.469213,-0.96869 v -2.20984 q 0,-0.49949 -0.33299,-0.77193 -0.393533,-0.43894 -0.726522,-0.27245 l -0.877882,0.43894 q -1.044376,0.49949 -1.377366,-0.77193 v -0.0303 q -0.332989,-1.10492 0.272446,-1.87685 0.484349,-0.66598 1.347094,-0.66598 z"
         id="path2462" />
      <path
         d="m 38.39539,111.29787 q 1.241143,0 2.240112,-1.13519 0.802202,-0.92329 0.802202,-4.51049 -0.01514,-1.80118 -0.84761,-2.72446 -0.84761,-0.92329 -2.194704,-0.92329 -1.165463,0 -2.028209,0.96869 -1.029241,1.15033 -1.029241,2.67906 0.01514,3.39043 1.029241,4.51049 1.014104,1.12006 2.028209,1.13519 z m 5.161338,-9.76265 q 2.13416,2.11903 2.13416,5.11593 0,2.99691 -2.164432,5.13107 -2.149296,2.11902 -4.722397,2.10389 -0.211902,0.0151 -0.408669,0 -2.906091,0.12109 -5.100795,-2.05848 -2.179568,-2.17957 -2.179568,-5.19161 0.01514,-3.02718 2.119025,-5.13107 2.119024,-2.103887 4.737533,-2.088751 0.196767,-0.01514 0.408669,-0.01514 3.042314,0 5.176474,2.134161 z"
         id="path2464" />
      <path
         d="m 54.288073,111.29787 q 1.241143,0 2.240112,-1.13519 0.802202,-0.92329 0.802202,-4.51049 -0.01514,-1.80118 -0.84761,-2.72446 -0.84761,-0.92329 -2.194704,-0.92329 -1.165463,0 -2.028209,0.96869 -1.029241,1.15033 -1.029241,2.67906 0.01514,3.39043 1.029241,4.51049 1.014104,1.12006 2.028209,1.13519 z m 5.161338,-9.76265 q 2.13416,2.11903 2.13416,5.11593 0,2.99691 -2.164432,5.13107 -2.149296,2.11902 -4.722397,2.10389 -0.211902,0.0151 -0.408669,0 -2.906091,0.12109 -5.100795,-2.05848 -2.179568,-2.17957 -2.179568,-5.19161 0.01514,-3.02718 2.119025,-5.13107 2.119024,-2.103887 4.737533,-2.088751 0.196767,-0.01514 0.408669,-0.01514 3.042314,0 5.176474,2.134161 z"
         id="path2466" />
      <path
         d="m 67.426026,105.63705 q 0,0 0,1.81631 0,1.57413 0.817338,2.67905 0.832474,1.10492 2.058481,1.07465 0.665979,0.0757 1.377366,-0.13623 1.437909,-0.49948 1.468181,-2.17956 0,0 0,-5.11594 -0.302718,-0.86274 -1.604404,-1.34709 -1.301686,-0.49948 -2.679052,0.1665 -0.665979,0.30271 -1.059513,1.15032 -0.378397,0.86275 -0.378397,1.89199 z m 2.482286,-5.887862 q 1.710355,0 3.23908,0.877882 v -4.555903 q -0.01514,-0.877881 0.620572,-1.513588 0.635707,-0.635708 1.528724,-0.635708 h 0.06054 q 0.877882,0 1.513589,0.635708 0.635707,0.635707 0.635707,1.513588 v 16.770563 q 0.03027,0.33299 -0.25731,0.60544 -0.272446,0.27244 -0.635707,0.27244 H 74.02527 q -0.393533,0 -0.650843,-0.27244 -0.257311,-0.27245 -0.227039,-0.60544 -1.513589,0.87788 -3.23908,0.87788 -2.754732,0 -4.692126,-2.04334 -1.937393,-2.04335 -1.937393,-4.9343 0,-2.90609 1.937393,-4.94944 1.937394,-2.043342 4.692126,-2.043342 z"
         id="path2468" />
      <path
         d="m 83.500339,96.040896 q 0,0 -0.469213,9.066394 -0.06054,0.71139 -0.544892,1.1806 -0.529756,0.46922 -1.241142,0.46922 -0.711387,0 -1.256279,-0.46922 -0.499485,-0.46921 -0.544892,-1.1806 l -0.469213,-9.066394 q -0.03027,-0.771931 0.499485,-1.316823 0.499484,-0.544892 1.271414,-0.560028 h 0.983833 q 0.77193,0 1.271415,0.560028 0.560028,0.544892 0.499484,1.316823 z m -0.438941,16.906784 q -0.711387,0.77193 -1.801171,0.77193 -1.074648,0 -1.846578,-0.75679 -0.77193,-0.75679 -0.77193,-1.81631 0,-1.05951 0.77193,-1.83144 0.77193,-0.78707 1.846578,-0.78707 1.074649,0 1.801171,0.77193 0.771931,0.74166 0.771931,1.83145 0,1.07465 -0.771931,1.8163 z"
         id="path2470" />
    </g>
  </g>
</svg>
