<?xml version="1.0" encoding="utf-8"?>
<!-- Generator: Adobe Illustrator 27.6.1, SVG Export Plug-In . SVG Version: 6.00 Build 0)  -->
<svg version="1.1" id="Layer_1" xmlns="http://www.w3.org/2000/svg" x="0px" y="0px"
     viewBox="0 0 808 808" style="enable-background:new 0 0 808 808;" xml:space="preserve">
<path d="M642.06,383.74c-6.2-5.46-13.57-9.61-21.51-11.9c-40.21-11.58-78.19,29.78-102.87,56.18V211.01
	c0-15.55-6.17-30.76-16.94-41.73c-10.66-10.86-24.62-16.73-39.33-16.43c-9.55,0.17-18.52,2.91-26.32,7.55v-28.46
	c0-17.06-6.77-33.75-18.58-45.78c-11.69-11.9-27.04-18.31-43.11-18.01c-32.84,0.59-59.57,28.77-59.57,62.82v7.49
	c-8.73-5.89-18.97-9.46-29.93-9.79c-16.35-0.5-32.62,6.08-44.53,18.06c-11.63,11.7-18.03,27.12-18.03,43.38l-0.07,27.36
	c-6.84-3.61-14.57-5.66-22.76-5.66c-27.64,0-50.13,23.31-50.13,51.95l0.02,291.55l0.03,1C159.31,719,260.02,739.86,346.53,739.86
	c75.73,0,143.81-38.96,177.77-101.7c4.28-7.16,15.99-26.23,27.63-45.18c11.73-19.09,22.64-36.7,32.27-52.24
	c5.36-8.65,10.23-16.51,14.45-23.36c14.12-22.9,35.74-39.38,49.98-62.02C663.87,431.13,664.63,403.62,642.06,383.74z M632.1,424.21
	c-0.86,6.41-4.31,12.77-8.45,17.92c-16.03,19.92-34.95,37.8-48.46,59.69c-4.22,6.84-9.08,14.68-14.43,23.31
	c-9.64,15.56-20.57,33.2-32.33,52.34c-11.84,19.27-23.75,38.67-27.98,45.76l-0.32,0.56C471.16,677.58,412.3,711,346.53,711
	c-34.82,0-79.08-3-112.62-26.39c-34.48-24.05-53.34-66.51-57.65-129.8l-0.02-291.05c0-12.73,9.99-23.09,22.28-23.09
	c12.34,0,22.38,10.36,22.38,23.09v109.11c0.35,18.94,27.46,18.96,27.85,0.04l0.45-182.76c0-8.43,3.4-16.49,9.58-22.71
	c6.54-6.58,15.4-10.18,24.31-9.92c16.84,0.52,30.53,15.6,30.53,33.65l0.22,180.63c0.37,18.96,27.51,18.92,27.85-0.02V130.97
	c0-18.41,14.44-33.65,32.2-33.97c0.18,0,0.37-0.01,0.55-0.01c8.38,0,16.37,3.45,22.55,9.74c6.52,6.64,10.25,15.82,10.25,25.19v74.13
	c-0.09,1.36-0.16,2.72-0.16,4.1l0.16,162.71c0.36,18.96,27.51,18.92,27.85-0.01v-165.7c1.44-14.04,12.91-25.2,26.81-25.45
	c7.15-0.13,14.04,2.77,19.32,8.15c5.47,5.57,8.61,13.28,8.61,21.14v236.56l0.01,0.72c0.09,10.43,6.7,19.24,16.45,21.93
	c9.67,2.67,19.55-1.54,24.58-10.47c0,0,0.16-0.29,0.16-0.29c12.11-21.94,33.3-39.19,53.71-53.12c4.61-3.15,9.46-6.19,14.93-7.32
	c5.62-1.16,11.54-0.17,16.86,1.98c6.18,2.5,11.95,6.88,14.44,13.07C632.27,417.35,632.56,420.79,632.1,424.21z"/>
</svg>
