<?xml version="1.0" encoding="UTF-8" standalone="no"?>
<!-- Svg Vector Icons : http://www.onlinewebfonts.com/icon -->

<svg
  version="1.1"
  x="0px"
  y="0px"
  viewBox="0 0 980 980"
  enable-background="new 0 0 1000 1000"
  xml:space="preserve"
  id="svg1717"
  sodipodi:docname="lock.svg"
  width="980"
  height="980"
  inkscape:version="1.2.2 (1:1.2.2+202305151914+b0a8486541)"
  inkscape:export-filename="lock.png"
  inkscape:export-xdpi="24.489796"
  inkscape:export-ydpi="24.489796"
  xmlns:inkscape="http://www.inkscape.org/namespaces/inkscape"
  xmlns:sodipodi="http://sodipodi.sourceforge.net/DTD/sodipodi-0.dtd"
  xmlns="http://www.w3.org/2000/svg"
><defs
   id="defs1721" /><sodipodi:namedview
   id="namedview1719"
   pagecolor="#ffffff"
   bordercolor="#666666"
   borderopacity="1.0"
   inkscape:pageshadow="2"
   inkscape:pageopacity="0.0"
   inkscape:pagecheckerboard="0"
   showgrid="false"
   inkscape:zoom="0.808"
   inkscape:cx="389.85149"
   inkscape:cy="491.33663"
   inkscape:window-width="1854"
   inkscape:window-height="1011"
   inkscape:window-x="66"
   inkscape:window-y="32"
   inkscape:window-maximized="1"
   inkscape:current-layer="g1715"
   inkscape:showpageshadow="2"
   inkscape:deskcolor="#d1d1d1" />
<metadata
   id="metadata1711"> Svg Vector Icons : http://www.onlinewebfonts.com/icon </metadata>
<g
   id="g1715"
   transform="matrix(0.96943384,0,0,0.96943384,5.28308,5.28308)"><path
     d="M 500,990 C 229.4,990 10,770.6 10,500 10,229.4 229.4,10 500,10 770.6,10 990,229.4 990,500 990,770.6 770.6,990 500,990 M 774.4,402 h -68.6 v -88.2 c 0,0 0,-205.8 -205.8,-205.8 -205.7,0 -205.8,205.8 -205.8,205.8 V 402 H 225.6 V 794 H 774.4 Z M 500,166.8 c 138,0 146.7,122.8 147,147 V 402 H 353 v -87.8 c 0.3,-24.7 9,-147.4 147,-147.4 m 0,352.8 c 32.5,0 58.8,26.3 58.8,58.8 0,21.7 -11.9,40.5 -29.4,50.7 V 733.9 H 470.6 V 629.1 c -17.5,-10.2 -29.4,-28.9 -29.4,-50.7 0,-32.5 26.4,-58.8 58.8,-58.8"
     id="path1713"
     style="fill:#e8e8e8;fill-opacity:1" /></g>
<path
   id="path3126"
   style="fill:#ffffff;fill-opacity:1;stroke-width:2.47525;stroke-miterlimit:4;stroke-dasharray:none"
   d="m 485.36719,97.171875 c -18.99396,0.199306 -38.08624,1.782506 -56.54004,6.474935 -13.59164,3.43226 -26.76896,8.43335 -39.34552,14.60937 -19.52813,9.69442 -37.13331,23.19962 -51.63592,39.47209 -18.3132,20.44098 -31.67222,44.9873 -40.60938,70.85376 -4.73493,13.80905 -8.89362,27.88239 -11.07168,42.3447 -2.51211,16.29348 -3.03094,32.80772 -3.33718,49.26538 -0.27752,18.28834 -0.13775,36.57953 -0.17317,54.86922 0,5.29466 0,10.58932 0,15.88398 -22.69011,0 -45.38021,0 -68.07032,0 0,131.69662 0,263.39323 0,395.08985 183.67644,0 367.35287,0 551.0293,0 0,-131.69662 0,-263.39323 0,-395.08985 -22.61654,0 -45.23307,0 -67.84961,0 -0.30724,-25.6372 -0.52753,-51.2756 -0.91666,-76.91173 -0.21655,-10.38686 -0.31359,-20.79126 -1.25101,-31.14448 -0.7842,-8.08798 -2.46755,-16.05482 -4.21006,-23.98113 -6.13266,-27.16214 -16.04006,-53.67555 -31.032,-77.2322 -11.1427,-17.53112 -25.16846,-33.29277 -41.68271,-45.93149 -10.50506,-8.07795 -22.00168,-14.83092 -34.07856,-20.27307 -14.01176,-6.44476 -28.76662,-11.31382 -43.93106,-14.1714 -18.20283,-3.4726 -36.80048,-4.293702 -55.29442,-4.127935 z m 5.3125,61.394535 c 2.52186,0.0109 5.01688,0.0408 7.47677,0.13118 5.77327,0.18826 11.53794,0.62874 17.27323,1.31608 1.18343,0.15877 2.62051,0.32754 3.89799,0.52365 1.53066,0.21548 3.0312,0.4548 4.61275,0.72717 2.61387,0.44497 5.29193,0.97392 7.7914,1.53158 1.30703,0.2807 2.47942,0.57616 3.8209,0.89729 2.34799,0.59107 4.84779,1.27423 7.0625,1.94726 15.40683,4.64049 30.0511,12.04196 42.5263,22.25024 12.50736,10.17476 22.70259,23.03275 30.36616,37.18459 4.92336,9.15642 9.16113,18.71617 12.09868,28.70235 1.96243,6.64753 3.65126,13.37696 5.1215,20.14966 0.67017,3.18851 1.05712,6.48753 1.28679,9.65473 0.28949,4.05308 0.42735,8.28782 0.52635,12.35206 0.37793,17.40682 0.42861,34.81868 0.61376,52.22819 0.12745,14.26096 0.25489,28.52192 0.38234,42.78287 -96.90495,0 -193.8099,0 -290.71484,0 0.0206,-24.4471 -0.0496,-48.89443 0.0565,-73.34135 0.0962,-9.8923 0.0936,-19.79965 0.86235,-29.66834 0.24761,-2.97341 0.6345,-6.08046 1.08314,-8.93562 0.52707,-3.26913 1.13308,-6.59229 1.79403,-9.75365 0.32991,-1.63828 0.68083,-3.18767 1.06492,-4.86231 3.85252,-16.61785 10.03048,-32.81929 19.3424,-47.16929 2.02574,-3.15488 4.21224,-6.20438 6.50568,-9.16983 0.36896,-0.47102 0.95317,-1.20151 1.40469,-1.77205 5.39872,-6.63946 11.36045,-12.84052 17.90371,-18.36102 1.53948,-1.28692 3.07964,-2.49709 4.64221,-3.65281 8.09519,-5.96965 17.10759,-10.58467 26.35444,-14.48494 13.93026,-5.81904 28.84356,-9.04637 43.85646,-10.34106 2.46035,-0.21768 4.87978,-0.39104 7.29027,-0.51662 4.58902,-0.2491 9.07748,-0.34512 13.69666,-0.35001 z m -0.0117,352.89843 c 10.05224,-0.004 20.19536,2.44444 28.82566,7.68141 6.12861,3.6715 11.42177,8.62799 15.89994,14.16783 4.11141,5.17018 6.98317,11.21767 9.13573,17.43201 1.95668,6.60091 2.45347,13.54986 2.32106,20.40534 -0.0724,2.76022 -0.28833,5.51805 -0.6863,8.25091 -0.0695,0.46218 -0.19999,1.2836 -0.31251,1.87934 -1.22321,7.00136 -4.68951,13.37966 -8.69269,19.16506 -3.65602,5.2059 -8.00224,9.9656 -13.12198,13.76557 -2.06188,1.62115 -4.12262,3.24375 -6.18532,4.86386 -0.0158,34.51758 -0.0333,69.03516 -0.0488,103.55274 -18.46875,0 -36.9375,0 -55.40625,0 0,-34.70378 0,-69.40756 0,-104.11133 -3.22235,-2.03965 -6.6344,-3.84543 -9.43323,-6.47674 -4.64151,-4.17093 -8.7361,-8.96594 -12.09802,-14.22443 -0.33053,-0.54121 -0.82298,-1.36411 -1.17968,-2.03516 -0.17673,-0.319 -0.51466,-0.99321 -0.73738,-1.45393 -3.06933,-6.27087 -5.03453,-13.08012 -5.76262,-20.02459 -0.0312,-0.42221 -0.11528,-1.1471 -0.1417,-1.60211 -0.0677,-0.91522 -0.11681,-1.75675 -0.14288,-2.73788 -0.27255,-8.81744 1.50517,-17.69311 5.18497,-25.71274 0.14815,-0.29248 0.4378,-0.94046 0.65916,-1.37399 4.12782,-8.43262 10.45211,-15.75198 18.13771,-21.13578 0.76561,-0.53974 1.8792,-1.30226 2.65625,-1.79101 1.46423,-0.93678 2.97308,-1.80247 4.51563,-2.60352 0.38714,-0.18842 1.10395,-0.55404 1.62326,-0.79603 5.30968,-2.5191 11.07189,-4.00509 16.90408,-4.64342 1.01695,-0.11324 2.30139,-0.23008 3.42603,-0.29838 0.6637,-0.0322 1.33268,-0.0818 1.87417,-0.091 0.92832,-0.0369 1.85678,-0.0474 2.78574,-0.0521 z" /></svg>
