<?xml version="1.0" encoding="UTF-8" standalone="no"?>
<!-- Generator: Adobe Illustrator 27.6.1, SVG Export Plug-In . SVG Version: 6.00 Build 0)  -->

<svg
  version="1.1"
  id="Layer_1"
  x="0px"
  y="0px"
  viewBox="0 0 808 808"
  style="enable-background:new 0 0 808 808;"
  xml:space="preserve"
  sodipodi:docname="private.svg"
  inkscape:version="1.2.2 (1:1.2.2+202305151914+b0a8486541)"
  xmlns:inkscape="http://www.inkscape.org/namespaces/inkscape"
  xmlns:sodipodi="http://sodipodi.sourceforge.net/DTD/sodipodi-0.dtd"
  xmlns="http://www.w3.org/2000/svg"
><defs
   id="defs10202" /><sodipodi:namedview
   id="namedview10200"
   pagecolor="#ffffff"
   bordercolor="#000000"
   borderopacity="0.25"
   inkscape:showpageshadow="2"
   inkscape:pageopacity="0.0"
   inkscape:pagecheckerboard="true"
   inkscape:deskcolor="#d1d1d1"
   showgrid="true"
   inkscape:zoom="0.26144802"
   inkscape:cx="-1491.6923"
   inkscape:cy="225.66627"
   inkscape:window-width="1920"
   inkscape:window-height="1043"
   inkscape:window-x="1920"
   inkscape:window-y="0"
   inkscape:window-maximized="1"
   inkscape:current-layer="Layer_1"><inkscape:grid
     type="xygrid"
     id="grid10292" /></sodipodi:namedview>
<style
   type="text/css"
   id="style10169">
	.st0{fill:#FFFFFF;stroke:#000000;stroke-width:23;stroke-miterlimit:10;}
</style>
<circle
   class="st0"
   cx="404"
   cy="409.06"
   r="351.16"
   id="circle10171" />

<g
   id="g79"
   transform="matrix(14.324731,0,0,14.324731,216.8043,174.8043)">
	<path
   style="fill:#010002"
   d="M 24,14.059 V 5.584 L 18.414,0 H 0 v 32 h 24 v -0.059 c 4.499,-0.5 7.998,-4.31 8,-8.941 -0.002,-4.634 -3.501,-8.443 -8,-8.941 z M 17.998,2.413 21.586,6 h -3.588 c 0,0 0,-3.587 0,-3.587 z M 2,30 V 1.998 h 14 v 6.001 h 6 v 6.06 c -1.469,0.162 -2.831,0.676 -4,1.458 V 12 L 8,10 v 8.174 C 7.686,18.062 7.351,18 7,18 c -1.658,0 -3,1.346 -3,3 0,1.656 1.342,3 3,3 1.655,0 3,-1.344 3,-3 v -8 l 6,1 v 3.348 C 15.354,18.147 14.848,19.061 14.504,20.05 13.084,20.288 12,21.516 12,23 c 0,1.486 1.084,2.713 2.505,2.95 0.558,1.604 1.55,3.004 2.845,4.05 z M 23,29.883 C 19.199,29.874 16.124,26.799 16.115,23 16.124,19.199 19.199,16.124 23,16.115 26.799,16.124 29.874,19.199 29.883,23 29.874,26.799 26.799,29.874 23,29.883 Z"
   id="path75" />
	<path
   style="fill:#010002"
   d="m 19,27 h 3 l -3,-3 z m 0.999,-4 5,-5 3.001,3 -5,5 z"
   id="path77" />
</g><g
   id="g81"
   transform="matrix(14.324731,0,0,14.324731,230.89061,186.92213)">
</g><g
   id="g83"
   transform="matrix(14.324731,0,0,14.324731,230.89061,186.92213)">
</g><g
   id="g85"
   transform="matrix(14.324731,0,0,14.324731,230.89061,186.92213)">
</g><g
   id="g87"
   transform="matrix(14.324731,0,0,14.324731,230.89061,186.92213)">
</g><g
   id="g89"
   transform="matrix(14.324731,0,0,14.324731,230.89061,186.92213)">
</g><g
   id="g91"
   transform="matrix(14.324731,0,0,14.324731,230.89061,186.92213)">
</g><g
   id="g93"
   transform="matrix(14.324731,0,0,14.324731,230.89061,186.92213)">
</g><g
   id="g95"
   transform="matrix(14.324731,0,0,14.324731,230.89061,186.92213)">
</g><g
   id="g97"
   transform="matrix(14.324731,0,0,14.324731,230.89061,186.92213)">
</g><g
   id="g99"
   transform="matrix(14.324731,0,0,14.324731,230.89061,186.92213)">
</g><g
   id="g101"
   transform="matrix(14.324731,0,0,14.324731,230.89061,186.92213)">
</g><g
   id="g103"
   transform="matrix(14.324731,0,0,14.324731,230.89061,186.92213)">
</g><g
   id="g105"
   transform="matrix(14.324731,0,0,14.324731,230.89061,186.92213)">
</g><g
   id="g107"
   transform="matrix(14.324731,0,0,14.324731,230.89061,186.92213)">
</g><g
   id="g109"
   transform="matrix(14.324731,0,0,14.324731,230.89061,186.92213)">
</g></svg>
