<?xml version="1.0" encoding="utf-8"?>
<!-- Generator: Adobe Illustrator 27.6.1, SVG Export Plug-In . SVG Version: 6.00 Build 0)  -->
<svg version="1.1" id="Layer_1" xmlns="http://www.w3.org/2000/svg" x="0px" y="0px"
     viewBox="0 0 808 808" style="enable-background:new 0 0 808 808;" xml:space="preserve">
<path d="M159.37,455.36c14.24,22.64,35.85,39.13,49.98,62.02c4.23,6.85,9.09,14.71,14.45,23.36c9.63,15.54,20.54,33.15,32.27,52.24
	c11.64,18.95,23.35,38.02,27.63,45.18c33.96,62.74,102.04,101.7,177.77,101.7c86.52,0,187.22-20.86,198.08-183.55l0.03-1
	l0.02-291.55c0-28.65-22.49-51.95-50.13-51.95c-8.19,0-15.92,2.05-22.76,5.66l-0.07-27.36c0-16.26-6.4-31.68-18.03-43.38
	c-11.91-11.98-28.18-18.57-44.53-18.06c-10.95,0.34-21.2,3.9-29.93,9.79v-7.49c0-34.05-26.72-62.24-59.57-62.82
	c-16.07-0.3-31.42,6.11-43.11,18.01c-11.81,12.03-18.58,28.71-18.58,45.78v28.46c-7.8-4.64-16.78-7.38-26.32-7.55
	c-14.71-0.31-28.67,5.57-39.33,16.43c-10.76,10.96-16.94,26.17-16.94,41.73v217.02c-24.69-26.4-62.66-67.76-102.87-56.18
	c-7.94,2.29-15.31,6.44-21.51,11.9C143.37,403.62,144.13,431.13,159.37,455.36z M177.04,414.07c2.48-6.19,8.25-10.56,14.44-13.07
	c5.32-2.15,11.24-3.14,16.86-1.98c5.47,1.13,10.32,4.17,14.93,7.32c20.41,13.93,41.6,31.18,53.71,53.12c0,0,0.16,0.29,0.16,0.29
	c5.03,8.93,14.91,13.14,24.58,10.47c9.75-2.69,16.36-11.5,16.45-21.93l0.01-0.72V211.01c0-7.86,3.14-15.57,8.61-21.14
	c5.29-5.39,12.18-8.29,19.32-8.15c13.89,0.25,25.36,11.41,26.81,25.45v165.7c0.34,18.94,27.49,18.97,27.85,0.01l0.16-162.71
	c0-1.38-0.06-2.75-0.16-4.1v-74.13c0-9.37,3.74-18.55,10.25-25.19c6.18-6.3,14.17-9.74,22.55-9.74c0.18,0,0.37,0,0.55,0.01
	c17.75,0.32,32.2,15.56,32.2,33.97v240.81c0.34,18.94,27.48,18.97,27.85,0.02l0.22-180.63c0-18.04,13.7-33.13,30.53-33.65
	c8.91-0.26,17.77,3.34,24.31,9.92c6.18,6.22,9.58,14.28,9.58,22.71l0.45,182.76c0.39,18.93,27.5,18.9,27.85-0.04V263.76
	c0-12.73,10.04-23.09,22.38-23.09c12.28,0,22.28,10.36,22.28,23.09l-0.02,291.05c-4.31,63.3-23.17,105.76-57.65,129.8
	C540.55,708,496.29,711,461.47,711c-65.77,0-124.63-33.41-153.61-87.2l-0.32-0.56c-4.23-7.09-16.14-26.49-27.98-45.76
	c-11.76-19.14-22.68-36.78-32.33-52.34c-5.35-8.63-10.21-16.47-14.43-23.31c-13.51-21.89-32.42-39.77-48.46-59.69
	c-4.15-5.15-7.6-11.51-8.45-17.92C175.44,420.79,175.73,417.35,177.04,414.07z"/>
</svg>
