<?xml version="1.0" encoding="UTF-8" standalone="no"?>
<!-- Generator: Adobe Illustrator 19.0.0, SVG Export Plug-In . SVG Version: 6.00 Build 0)  -->

<svg
  version="1.1"
  id="Layer_1"
  x="0px"
  y="0px"
  viewBox="0 0 365 51.900002"
  xml:space="preserve"
  sodipodi:docname="roland_logo.svg"
  width="365"
  height="51.900002"
  inkscape:version="1.1.2 (b8e25be833, 2022-02-05)"
  xmlns:inkscape="http://www.inkscape.org/namespaces/inkscape"
  xmlns:sodipodi="http://sodipodi.sourceforge.net/DTD/sodipodi-0.dtd"
  xmlns="http://www.w3.org/2000/svg"
><defs
   id="defs25" /><sodipodi:namedview
   id="namedview23"
   pagecolor="#ffffff"
   bordercolor="#666666"
   borderopacity="1.0"
   inkscape:pageshadow="2"
   inkscape:pageopacity="0.0"
   inkscape:pagecheckerboard="0"
   showgrid="false"
   inkscape:zoom="1.662"
   inkscape:cx="182.61131"
   inkscape:cy="25.872443"
   inkscape:window-width="1920"
   inkscape:window-height="1017"
   inkscape:window-x="-8"
   inkscape:window-y="-8"
   inkscape:window-maximized="1"
   inkscape:current-layer="Layer_1" />
<style
   type="text/css"
   id="style2">
	.st0{fill:#FF8200;}
	.st1{fill:#FFFFFF;}
</style>
<g
   id="XMLID_1_"
   transform="translate(-67.5,-224.1)">
	<path
   id="XMLID_3_"
   class="st0"
   d="m 391.2,276 c 5.5,0 11,-1.9 13.8,-5.8 0,1.6 0.8,3.9 1.1,4.8 h 7.9 c -0.2,-2.2 -0.5,-4.6 -0.5,-6.8 v -42.7 h -8.2 v 19.1 c -2.4,-2.8 -8,-4.9 -12.5,-4.9 -13.4,-0.1 -20.1,8.9 -20.1,18.1 -0.1,8.8 5.8,18.2 18.5,18.2 z" />
	<path
   id="XMLID_4_"
   class="st0"
   d="m 248.5,239.6 v 0 c -0.3,0 -20.9,0.2 -22.4,18.2 -1,10.7 8.3,18.1 22.4,18.1 14,0 22.4,-7.4 22.4,-18.1 0,-10.4 -9.3,-17.6 -22.4,-18.2 z" />
	<rect
   id="XMLID_5_"
   x="274"
   y="225.5"
   class="st0"
   width="9.6999998"
   height="49.5" />
	<path
   id="XMLID_6_"
   class="st0"
   d="m 339.3,254.3 c 0.2,-5 8.5,-8.6 12.6,-8.6 6.3,0 7.7,4.9 7.9,8.6 v 20.6 h 8.1 v -22.3 c 0,-1.2 -0.1,-3.4 -0.8,-5.5 -1.6,-5 -9.6,-8.3 -13.9,-8.3 -6.5,0 -11,2.8 -13.7,6 l -0.1,-0.1 v -5.2 H 331 V 275 h 8.3 z" />
	<path
   id="XMLID_7_"
   class="st0"
   d="m 317.3,270.4 c 0,1.4 0.2,3.1 0.5,4.5 h 8 c -0.1,-1 -0.5,-2 -0.6,-3.7 v -18.7 c 0,-10.4 -8.7,-12.9 -17.3,-12.9 -4.7,0 -9.2,0.5 -12.8,2.1 -3.4,1.6 -5.7,4.3 -5.8,8.6 h 9.1 c -0.2,-1.6 2.9,-5 9.1,-5 4.6,0 8.9,2 8.9,4.3 v 3 0.2 c -5.1,-0.1 -14.7,0 -19.8,1.9 -7.8,2.6 -9.2,8.4 -9.3,10.8 0.1,6.7 6.1,10.4 14.2,10.4 5.7,0.1 12.9,-1.5 15.8,-5.5 z" />
	<path
   id="XMLID_8_"
   class="st0"
   d="m 188.8,253.8 h 16.3 c 4.4,0.1 7.3,5.1 7.6,7.9 0.6,4.4 1.2,8.9 2.3,13.2 h 10.1 c -2.5,-2.7 -3,-8.5 -3.6,-11.7 -1.1,-6.8 -0.2,-10.5 -6.8,-11.7 v -0.1 c 7.7,-1.3 9.1,-6.6 9.1,-13 0,-10.1 -10.1,-12.9 -20.7,-13 H 179 v 49.5 h 9.8 z" />
	<path
   id="XMLID_9_"
   class="st0"
   d="m 67.5,225.9 h 89.1 c 9.3,0.4 16,5.6 16.6,15.8 -0.3,9.3 -6.2,15.3 -16.6,15.7 h -54.1 v 2.9 h 70.1 v 5.4 H 97.2 v -13.6 h 59.3 c 7.3,-0.2 10.8,-3.6 11.3,-10.4 -0.7,-7.2 -4.8,-10.2 -11.3,-10.5 H 72.9 v 43.4 h -5.4 z" />
	<path
   id="XMLID_10_"
   class="st0"
   d="m 82.4,266.1 v 8 H 77 v -39.2 h 80 v 13.8 H 99.2 c -6.9,0.3 -13,3.1 -13.1,11.3 1.3,6.9 6.1,9.2 13.1,9.4 h 73 v 5.4 H 99.1 c -6.4,-0.3 -13.6,-2.4 -16.7,-8.7 z" />
	<path
   id="XMLID_11_"
   class="st1"
   d="m 82.4,252.3 c 3.3,-6.4 10,-8.7 16.7,-8.9 h 52.6 v -3.1 H 82.4 Z" />
	<path
   id="XMLID_12_"
   class="st0"
   d="m 432.5,229.3 c 0,-2.9 -2.3,-5.2 -5.1,-5.2 -2.9,0 -5.3,2.3 -5.2,5.2 0,2.8 2.3,5.2 5.2,5.2 2.8,-0.1 5.1,-2.4 5.1,-5.2 z" />
	<path
   id="XMLID_13_"
   class="st1"
   d="m 393.1,245.4 c 7,0 12.1,7.7 12.2,12.4 -0.1,4.8 -4.6,11.9 -11.6,11.9 -8.3,0 -12.8,-6.6 -12.9,-11.9 0,-5.3 4.1,-12.4 12.3,-12.4 z" />
	<path
   id="XMLID_14_"
   class="st1"
   d="m 248.5,270.1 c -7.9,0 -13,-6.9 -13,-12.3 0,-5.6 4.7,-12.2 13,-12.2 v -0.1 0.1 c 8.2,0 12.9,6.6 12.9,12.2 0,5.4 -5.1,12.4 -12.9,12.3 z" />
	<path
   id="XMLID_15_"
   class="st1"
   d="m 316.3,259.8 c -0.2,7.1 -5,9.7 -12.2,9.7 -3.6,0 -7.2,-0.5 -7,-5.2 0,-3.6 6.8,-6.7 19.2,-5.4 z" />
	<path
   id="XMLID_16_"
   class="st1"
   d="m 188.8,232.7 h 16.4 c 5.9,0.1 9.3,2.9 9.3,7.3 0,4.4 -3.4,6.8 -9.3,6.8 h -16.4 z" />
	<path
   id="XMLID_17_"
   class="st1"
   d="m 431.9,229.3 c 0,2.5 -2,4.6 -4.5,4.6 -2.6,-0.1 -4.7,-2.1 -4.6,-4.6 -0.1,-2.6 2,-4.6 4.5,-4.6 2.6,-0.1 4.6,2 4.6,4.6 z" />
	<path
   id="XMLID_18_"
   class="st0"
   d="m 425.4,232 h 0.7 v -2.5 h 1.9 c 1.2,0 0.9,1 1,1.8 l 0.1,0.7 h 1 c -0.4,-0.5 -0.2,-0.7 -0.4,-1.4 0,-1 -0.1,-1.1 -0.6,-1.4 0.5,-0.5 0.7,-0.7 0.7,-1.4 -0.1,-1.3 -0.9,-1.5 -1.8,-1.5 h -2.6 z" />
	<path
   id="XMLID_19_"
   class="st1"
   d="m 428,226.9 c 0.4,0 1.1,0.1 1.1,1.1 -0.1,0.8 -0.6,0.9 -1.1,1 h -1.9 v -2 h 1.9 z" />
</g>
</svg>
