<?xml version="1.0" encoding="UTF-8" standalone="no"?>
<!-- Generator: Adobe Illustrator 27.6.1, SVG Export Plug-In . SVG Version: 6.00 Build 0)  -->

<svg
  version="1.1"
  id="Layer_1"
  x="0px"
  y="0px"
  viewBox="0 0 808 808"
  style="enable-background:new 0 0 808 808;"
  xml:space="preserve"
  sodipodi:docname="save_off_over.svg"
  inkscape:version="1.2.2 (1:1.2.2+202305151914+b0a8486541)"
  xmlns:inkscape="http://www.inkscape.org/namespaces/inkscape"
  xmlns:sodipodi="http://sodipodi.sourceforge.net/DTD/sodipodi-0.dtd"
  xmlns="http://www.w3.org/2000/svg"
><defs
   id="defs10202" /><sodipodi:namedview
   id="namedview10200"
   pagecolor="#ffffff"
   bordercolor="#000000"
   borderopacity="0.25"
   inkscape:showpageshadow="2"
   inkscape:pageopacity="0.0"
   inkscape:pagecheckerboard="true"
   inkscape:deskcolor="#d1d1d1"
   showgrid="true"
   inkscape:zoom="0.52289604"
   inkscape:cx="180.72426"
   inkscape:cy="351.88639"
   inkscape:window-width="1920"
   inkscape:window-height="1043"
   inkscape:window-x="1920"
   inkscape:window-y="0"
   inkscape:window-maximized="1"
   inkscape:current-layer="Layer_1"><inkscape:grid
     type="xygrid"
     id="grid10292" /></sodipodi:namedview>
<style
   type="text/css"
   id="style10169">
	.st0{fill:#FFFFFF;stroke:#000000;stroke-width:23;stroke-miterlimit:10;}
</style>
<circle
   class="st0"
   cx="404"
   cy="409.06"
   r="351.16"
   id="circle10171"
   style="fill:#e6e6e6;fill-opacity:1" />

<g
   id="g37234"
   transform="matrix(1.5235655,0,0,1.5235655,586.87949,-1795.8249)"><g
     id="g2682"
     transform="translate(-15.003517,-15.252987)"><g
       id="g2688"
       transform="matrix(0.93902135,0,0,0.93902135,-3.2281333,80.95348)"
       style="stroke-width:18.9772;stroke-dasharray:none"><path
         class="st2"
         d="M 101.73595,1341.9837 H 24.318856 c -7.653782,0 -13.85874,-7.321 -13.85874,-16.3514 v -72.4318 c 0,-9.0303 6.204958,-16.3514 13.85874,-16.3514 h 77.417094 c 7.65378,0 13.85875,7.3211 13.85875,16.3514 v 72.42 c 0,9.0305 -6.20497,16.3632 -13.85875,16.3632 z"
         id="path36989"
         style="fill:#ffffff;fill-opacity:1;stroke:#ff0000;stroke-width:18.9772;stroke-miterlimit:10;stroke-dasharray:none;stroke-opacity:1" /><polygon
         points="454.5,165.212 394.508,61.288 287.5,123.077 287.5,0 167.5,0 167.5,123.077 60.492,61.288 0.499,165.212 107.51,227 0.5,288.788 60.492,392.712 167.5,330.923 167.5,455 287.5,455 287.5,330.923 394.508,392.712 454.501,288.788 347.49,227 "
         id="polygon8101"
         transform="matrix(0.11534879,0,0,0.11509577,36.251468,1262.5053)"
         style="fill:#ff0000;stroke:none;stroke-width:18.9766;stroke-dasharray:none" /></g></g></g><g
   transform="matrix(0.03008755,0,0,-0.03008755,215.95281,596.56032)"
   fill="#000000"
   stroke="none"
   id="g1770"><path
     d="M 0,6400 V 0 h 6250 6250 l -1,5368 v 5367 l -1047,1032 -1047,1033 H 5203 0 Z M 9390,9955 V 8020 H 6250 3110 v 1935 1935 H 6250 9390 Z M 10760,3505 V 1050 H 6250 1740 v 2455 2455 h 4510 4510 z"
     id="path1760" /><path
     d="M 7210,9955 V 8750 h 695 695 v 1205 1205 h -695 -695 z"
     id="path1762" /><path
     d="m 2650,4845 v -295 h 3600 3600 v 295 295 H 6250 2650 Z"
     id="path1764" /><path
     d="m 2652,3518 3,-293 h 3595 3595 l 3,293 2,292 H 6250 2650 Z"
     id="path1766" /><path
     d="m 2650,2110 v -290 h 3600 3600 v 290 290 H 6250 2650 Z"
     id="path1768" /></g></svg>
