<?xml version="1.0" encoding="UTF-8" standalone="no"?>
<!-- Generator: Adobe Illustrator 27.6.1, SVG Export Plug-In . SVG Version: 6.00 Build 0)  -->

<svg
  version="1.1"
  id="Layer_1"
  x="0px"
  y="0px"
  viewBox="0 0 808 808"
  style="enable-background:new 0 0 808 808;"
  xml:space="preserve"
  sodipodi:docname="settings_off.svg"
  inkscape:version="1.2.2 (1:1.2.2+202305151914+b0a8486541)"
  xmlns:inkscape="http://www.inkscape.org/namespaces/inkscape"
  xmlns:sodipodi="http://sodipodi.sourceforge.net/DTD/sodipodi-0.dtd"
  xmlns="http://www.w3.org/2000/svg"
><defs
   id="defs10202" /><sodipodi:namedview
   id="namedview10200"
   pagecolor="#ffffff"
   bordercolor="#000000"
   borderopacity="0.25"
   inkscape:showpageshadow="2"
   inkscape:pageopacity="0.0"
   inkscape:pagecheckerboard="true"
   inkscape:deskcolor="#d1d1d1"
   showgrid="true"
   inkscape:zoom="1.0457921"
   inkscape:cx="339.93373"
   inkscape:cy="417.86509"
   inkscape:window-width="1920"
   inkscape:window-height="1043"
   inkscape:window-x="1920"
   inkscape:window-y="0"
   inkscape:window-maximized="1"
   inkscape:current-layer="g37234"><inkscape:grid
     type="xygrid"
     id="grid10292" /></sodipodi:namedview>
<style
   type="text/css"
   id="style10169">
	.st0{fill:#FFFFFF;stroke:#000000;stroke-width:23;stroke-miterlimit:10;}
</style>
<circle
   class="st0"
   cx="404"
   cy="409.06"
   r="351.16"
   id="circle10171" />

<g
   id="g37052"
   transform="matrix(1.419332,0,0,1.419332,50.061179,39.252966)"><circle
     class="st0"
     cx="249.34"
     cy="256.95001"
     r="93.5"
     id="circle36965"
     style="fill:none;stroke:#000000;stroke-width:56.0024;stroke-miterlimit:10" /><path
     d="m 269.43,93.73 h -39.17 c -5.27,0 -9.55,4.27 -9.55,9.55 v 35.7 h 58.27 v -35.7 c 0,-5.28 -4.28,-9.55 -9.55,-9.55 z"
     id="path36969" /><path
     d="m 230.26,420.24 h 39.17 c 5.27,0 9.55,-4.27 9.55,-9.55 V 375 h -58.27 v 35.7 c 0,5.27 4.27,9.54 9.55,9.54 z"
     id="path36971" /><path
     d="m 86.11,236.2 v 39.17 c 0,5.27 4.27,9.55 9.55,9.55 h 35.7 v -58.27 h -35.7 c -5.27,0.01 -9.55,4.28 -9.55,9.55 z"
     id="path36973" /><path
     d="m 148.15,128.24 -27.7,27.7 c -3.73,3.73 -3.73,9.77 0,13.5 l 25.24,25.24 41.2,-41.2 -25.24,-25.24 c -3.73,-3.72 -9.78,-3.72 -13.5,0 z"
     id="path36975" /><path
     d="m 348.94,384.44 27.7,-27.7 c 3.73,-3.73 3.73,-9.77 0,-13.5 L 351.4,318 l -41.2,41.2 25.24,25.24 c 3.73,3.73 9.77,3.73 13.5,0 z"
     id="path36977" /><path
     d="m 121.29,355.89 27.7,27.7 c 3.73,3.73 9.77,3.73 13.5,0 l 25.24,-25.24 -41.2,-41.2 -25.24,25.24 c -3.73,3.73 -3.73,9.77 0,13.5 z"
     id="path36979" /><path
     d="m 377,155.58 -27.7,-27.7 c -3.73,-3.73 -9.77,-3.73 -13.5,0 l -25.24,25.24 41.2,41.2 25.24,-25.24 c 3.73,-3.73 3.73,-9.77 0,-13.5 z"
     id="path36981" /><path
     d="M 412.63,275.38 V 236.2 c 0,-5.27 -4.27,-9.55 -9.55,-9.55 h -35.7 v 58.27 h 35.7 c 5.27,0 9.55,-4.27 9.55,-9.54 z"
     id="path36983" /></g><g
   id="g37234"
   transform="matrix(1.5235655,0,0,1.5235655,586.87949,-1795.8249)"><g
     id="g43166"
     transform="matrix(1.00587,0,0,1.00587,-354.06237,1172.0878)">
		<path
   class="st2"
   d="m 452.57,172.94 h -77.48 c -7.66,0 -13.87,-6.21 -13.87,-13.87 V 97.63 c 0,-7.66 6.21,-13.87 13.87,-13.87 h 77.48 c 7.66,0 13.87,6.21 13.87,13.87 v 61.43 c 0,7.66 -6.21,13.88 -13.87,13.88 z"
   id="path43150"
   style="fill:#ff0000" />
		<rect
   x="378.35001"
   y="28.059999"
   class="st3"
   width="70.949997"
   height="57.080002"
   id="rect43152"
   style="fill:#ffffff;stroke:#ff0000;stroke-width:8;stroke-miterlimit:10" />
		<g
   id="g43158">
			<rect
   x="390.29001"
   y="44.310001"
   class="st2"
   width="18.629999"
   height="18.629999"
   id="rect43154"
   style="fill:#ff0000" />
			<rect
   x="418.73999"
   y="44.310001"
   class="st2"
   width="18.629999"
   height="18.629999"
   id="rect43156"
   style="fill:#ff0000" />
		</g>
		<g
   id="g43164">
			<line
   class="st4"
   x1="395.59"
   y1="107.34"
   x2="431.70001"
   y2="145.09"
   id="line43160"
   style="fill:none;stroke:#ffffff;stroke-width:8;stroke-linecap:round;stroke-miterlimit:10" />
			<line
   class="st4"
   x1="432.45999"
   y1="107.34"
   x2="395.20001"
   y2="144.60001"
   id="line43162"
   style="fill:none;stroke:#ffffff;stroke-width:8;stroke-linecap:round;stroke-miterlimit:10" />
		</g>
	</g></g></svg>
