<?xml version="1.0" encoding="UTF-8" standalone="no"?>
<!-- Generator: Adobe Illustrator 27.6.1, SVG Export Plug-In . SVG Version: 6.00 Build 0)  -->

<svg
  version="1.1"
  id="Layer_1"
  x="0px"
  y="0px"
  viewBox="0 0 808 808"
  style="enable-background:new 0 0 808 808;"
  xml:space="preserve"
  sodipodi:docname="text_down.svg"
  inkscape:version="1.2.2 (1:1.2.2+202305151914+b0a8486541)"
  xmlns:inkscape="http://www.inkscape.org/namespaces/inkscape"
  xmlns:sodipodi="http://sodipodi.sourceforge.net/DTD/sodipodi-0.dtd"
  xmlns="http://www.w3.org/2000/svg"
><defs
   id="defs10202" /><sodipodi:namedview
   id="namedview10200"
   pagecolor="#ffffff"
   bordercolor="#000000"
   borderopacity="0.25"
   inkscape:showpageshadow="2"
   inkscape:pageopacity="0.0"
   inkscape:pagecheckerboard="true"
   inkscape:deskcolor="#d1d1d1"
   showgrid="true"
   inkscape:zoom="0.36974334"
   inkscape:cx="-670.73555"
   inkscape:cy="465.18756"
   inkscape:window-width="1920"
   inkscape:window-height="1043"
   inkscape:window-x="1920"
   inkscape:window-y="0"
   inkscape:window-maximized="1"
   inkscape:current-layer="Layer_1"><inkscape:grid
     type="xygrid"
     id="grid10292" /></sodipodi:namedview>
<style
   type="text/css"
   id="style10169">
	.st0{fill:#FFFFFF;stroke:#000000;stroke-width:23;stroke-miterlimit:10;}
</style>
<circle
   class="st0"
   cx="404"
   cy="409.06"
   r="351.16"
   id="circle10171"
   style="fill:#b3b3b3;fill-opacity:1" />

<g
   id="g21477"
   transform="matrix(0.79372778,0,0,0.79372778,199.06941,199.06941)"
   style="stroke-width:12.5988;stroke-dasharray:none">
	<g
   id="g21475"
   style="stroke-width:12.5988;stroke-dasharray:none">
		<rect
   x="133.875"
   y="420.75"
   width="248.625"
   height="31.723722"
   id="rect21459"
   style="stroke-width:16.2263;stroke-dasharray:none" />
		<rect
   x="133.875"
   y="133.875"
   width="146.47339"
   height="31.723722"
   id="rect21461"
   style="stroke-width:1.69726;stroke-dasharray:none" />
		<rect
   x="133.875"
   y="363.375"
   width="248.625"
   height="31.723722"
   id="rect21463"
   style="stroke-width:16.2263;stroke-dasharray:none" />
		<rect
   x="133.875"
   y="76.5"
   width="133.875"
   height="19.125"
   id="rect21465"
   style="stroke:#000000;stroke-width:12.5988;stroke-dasharray:none;stroke-opacity:1" />
		<path
   d="M 325.125,0 H 315.563 114.75 C 93.712,0 76.5,17.212 76.5,38.25 v 439.875 c 0,21.037 17.212,38.25 38.25,38.25 h 286.875 c 21.037,0 38.25,-17.213 38.25,-38.25 v -334.687 -9.562 z m 0,28.688 89.888,105.188 H 344.25 c -9.562,0 -19.125,-9.562 -19.125,-19.125 z m 95.625,449.437 c 0,9.562 -7.65,19.125 -19.125,19.125 H 114.75 c -9.562,0 -19.125,-7.65 -19.125,-19.125 V 38.25 c 0,-9.562 7.65,-19.125 19.125,-19.125 H 306 v 95.625 c 0,21.038 17.213,38.25 38.25,38.25 h 76.5 z"
   id="path21467"
   style="stroke:#000000;stroke-width:12.5988;stroke-dasharray:none;stroke-opacity:1" />
		<rect
   x="133.875"
   y="306"
   width="248.625"
   height="31.723722"
   id="rect21469"
   style="stroke-width:16.2263;stroke-dasharray:none" />
		<rect
   x="133.875"
   y="191.25"
   width="248.625"
   height="31.723722"
   id="rect21471"
   style="stroke-width:16.2263;stroke-dasharray:none" />
		<rect
   x="133.875"
   y="248.625"
   width="248.625"
   height="31.723722"
   id="rect21473"
   style="stroke-width:16.2263;stroke-dasharray:none" />
	</g>
</g><g
   id="g21479"
   transform="matrix(0.52161724,0,0,0.52161724,-929.18885,23.261069)">
</g><g
   id="g21481"
   transform="matrix(0.52161724,0,0,0.52161724,-929.18885,23.261069)">
</g><g
   id="g21483"
   transform="matrix(0.52161724,0,0,0.52161724,-929.18885,23.261069)">
</g><g
   id="g21485"
   transform="matrix(0.52161724,0,0,0.52161724,-929.18885,23.261069)">
</g><g
   id="g21487"
   transform="matrix(0.52161724,0,0,0.52161724,-929.18885,23.261069)">
</g><g
   id="g21489"
   transform="matrix(0.52161724,0,0,0.52161724,-929.18885,23.261069)">
</g><g
   id="g21491"
   transform="matrix(0.52161724,0,0,0.52161724,-929.18885,23.261069)">
</g><g
   id="g21493"
   transform="matrix(0.52161724,0,0,0.52161724,-929.18885,23.261069)">
</g><g
   id="g21495"
   transform="matrix(0.52161724,0,0,0.52161724,-929.18885,23.261069)">
</g><g
   id="g21497"
   transform="matrix(0.52161724,0,0,0.52161724,-929.18885,23.261069)">
</g><g
   id="g21499"
   transform="matrix(0.52161724,0,0,0.52161724,-929.18885,23.261069)">
</g><g
   id="g21501"
   transform="matrix(0.52161724,0,0,0.52161724,-929.18885,23.261069)">
</g><g
   id="g21503"
   transform="matrix(0.52161724,0,0,0.52161724,-929.18885,23.261069)">
</g><g
   id="g21505"
   transform="matrix(0.52161724,0,0,0.52161724,-929.18885,23.261069)">
</g><g
   id="g21507"
   transform="matrix(0.52161724,0,0,0.52161724,-929.18885,23.261069)">
</g></svg>
