<?xml version="1.0" encoding="UTF-8" standalone="no"?>
<!-- Generator: Adobe Illustrator 27.6.1, SVG Export Plug-In . SVG Version: 6.00 Build 0)  -->

<svg
  version="1.1"
  id="Layer_1"
  x="0px"
  y="0px"
  viewBox="0 0 808 808"
  style="enable-background:new 0 0 808 808;"
  xml:space="preserve"
  sodipodi:docname="user_off_selected.svg"
  inkscape:version="1.3.2 (1:1.3.2+202311252150+091e20ef0f)"
  xmlns:inkscape="http://www.inkscape.org/namespaces/inkscape"
  xmlns:sodipodi="http://sodipodi.sourceforge.net/DTD/sodipodi-0.dtd"
  xmlns="http://www.w3.org/2000/svg"
><defs
   id="defs10202" /><sodipodi:namedview
   id="namedview10200"
   pagecolor="#ffffff"
   bordercolor="#000000"
   borderopacity="0.25"
   inkscape:showpageshadow="2"
   inkscape:pageopacity="0.0"
   inkscape:pagecheckerboard="true"
   inkscape:deskcolor="#d1d1d1"
   showgrid="true"
   inkscape:zoom="0.36974334"
   inkscape:cx="-534.15431"
   inkscape:cy="718.06567"
   inkscape:window-width="1850"
   inkscape:window-height="1011"
   inkscape:window-x="0"
   inkscape:window-y="0"
   inkscape:window-maximized="1"
   inkscape:current-layer="Layer_1"><inkscape:grid
     type="xygrid"
     id="grid10292"
     originx="0"
     originy="0"
     spacingy="1"
     spacingx="1"
     units="px"
     visible="true" /></sodipodi:namedview>
<style
   type="text/css"
   id="style10169">
	.st0{fill:#FFFFFF;stroke:#000000;stroke-width:23;stroke-miterlimit:10;}
</style>
<circle
   class="st0"
   cx="404"
   cy="409.06"
   r="351.16"
   id="circle10171"
   style="fill:#025f94;fill-opacity:1;stroke:#ffffff;stroke-opacity:1" /><g
   id="g10239"
   transform="matrix(1.6127564,0,0,1.6127564,-250.55164,-256.02879)"
   style="stroke-width:37.2033867;stroke-dasharray:none"><circle
     class="st1"
     cx="405.84894"
     cy="356.73257"
     id="circle10051"
     style="fill:none;stroke:#ffffff;stroke-width:37.2033867;stroke-miterlimit:10;stroke-dasharray:none;stroke-opacity:1"
     r="73.25" /><path
     class="st1"
     d="m 292.36896,545.87259 c 0,-62.68 50.81,-113.49 113.49,-113.49 62.68,0 113.49,50.81 113.49,113.49"
     id="path10053"
     style="fill:none;stroke:#ffffff;stroke-width:37.2033867;stroke-miterlimit:10;stroke-dasharray:none;stroke-opacity:1" /></g>

<g
   id="g10065"
   transform="matrix(1.4069794,0,0,1.4069794,98.277156,0.23042327)">
		<path
   class="st2"
   d="m 434.41,170.05 h -73.98 c -17.21,0 -31.17,-13.95 -31.17,-31.17 V 63.89 c 0,-17.21 13.95,-31.17 31.17,-31.17 h 73.98 c 17.21,0 31.17,13.95 31.17,31.17 v 74.99 c -0.01,17.21 -13.96,31.17 -31.17,31.17 z"
   id="path10057"
   style="fill:#ffffff;stroke:#d50100;stroke-width:16.34707658;stroke-miterlimit:10;stroke-dasharray:none" />
		<g
   id="g10063">
			<path
   class="st3"
   d="m 434.63,127.92 -10.67,10.67 c -2.47,2.47 -6.48,2.47 -8.95,0 L 360.21,83.8 c -2.47,-2.47 -2.47,-6.48 0,-8.95 l 10.67,-10.67 c 2.47,-2.47 6.48,-2.47 8.95,0 l 54.79,54.79 c 2.48,2.47 2.48,6.48 0.01,8.95 z"
   id="path10059"
   style="fill:#d50100" />
			<path
   class="st3"
   d="m 360.21,127.92 10.67,10.67 c 2.47,2.47 6.48,2.47 8.95,0 L 434.62,83.8 c 2.47,-2.47 2.47,-6.48 0,-8.95 L 423.95,64.18 c -2.47,-2.47 -6.48,-2.47 -8.95,0 l -54.79,54.79 c -2.47,2.47 -2.47,6.48 0,8.95 z"
   id="path10061"
   style="fill:#d50100" />
		</g>
	</g></svg>
