<?xml version="1.0" encoding="UTF-8" standalone="no"?>
<!-- Created with Inkscape (http://www.inkscape.org/) -->

<svg
  width="138.96971mm"
  height="25.664919mm"
  viewBox="0 0 138.96971 25.664919"
  version="1.1"
  id="svg5"
  sodipodi:docname="very_good.svg"
  inkscape:version="1.2.2 (1:1.2.2+202305151914+b0a8486541)"
  xmlns:inkscape="http://www.inkscape.org/namespaces/inkscape"
  xmlns:sodipodi="http://sodipodi.sourceforge.net/DTD/sodipodi-0.dtd"
  xmlns="http://www.w3.org/2000/svg"
>
  <sodipodi:namedview
     id="namedview7"
     pagecolor="#ffffff"
     bordercolor="#000000"
     borderopacity="0.25"
     inkscape:showpageshadow="2"
     inkscape:pageopacity="0.0"
     inkscape:pagecheckerboard="0"
     inkscape:deskcolor="#d1d1d1"
     inkscape:document-units="mm"
     showgrid="false"
     inkscape:zoom="0.75277076"
     inkscape:cx="250.40824"
     inkscape:cy="135.49942"
     inkscape:window-width="1920"
     inkscape:window-height="1043"
     inkscape:window-x="1920"
     inkscape:window-y="0"
     inkscape:window-maximized="1"
     inkscape:current-layer="layer1" />
  <defs
     id="defs2" />
  <g
     inkscape:label="Layer 1"
     inkscape:groupmode="layer"
     id="layer1"
     transform="translate(-6.9431747,-48.026836)">
    <g
       aria-label="Very Good!"
       id="text1004"
       style="font-size:30.9983px;font-family:Dyuthi;-inkscape-font-specification:'Dyuthi, Normal';opacity:1;stroke-width:0">
      <path
         d="M 7.0713846,51.810809 Q 6.7081232,50.721025 7.3741023,49.7826 8.0400814,48.844174 9.1601372,48.85931 h 0.5297561 q 0.7113867,0 1.3168227,0.438941 0.605435,0.438941 0.787066,1.135192 l 1.710355,6.538704 q 1.407638,4.919164 1.786035,6.73547 h 0.09082 q 0.105951,-0.544892 1.816306,-6.629519 l 1.664948,-6.674927 q 0.166495,-0.650843 0.787066,-1.10492 0.620572,-0.454077 1.755763,-0.438941 h 0.04541 q 1.150328,0 1.816307,0.938425 0.665979,0.938426 0.287582,2.043345 l -4.586175,13.531485 q -0.393533,1.150328 -1.437909,1.801171 -1.044377,0.650843 -2.073617,0.650843 h -0.423805 q -1.195735,-0.01514 -2.164432,-0.681115 -0.983833,-0.711387 -1.347094,-1.831442 z"
         id="path2473" />
      <path
         d="m 32.227232,56.578614 q -1.074648,0 -2.119025,0.923289 -0.665979,0.5903 -0.923289,1.922258 h 6.629519 Q 35.314953,57.668398 34.33112,57.123506 33.347288,56.578614 32.227232,56.578614 Z m 6.705199,4.26832 v 0.01514 q 0,1.271415 -1.210872,1.271415 h -8.43069 q 0.438941,1.377366 0.893018,1.816307 1.680083,1.54386 4.480223,0.287581 l 1.558996,-0.69625 q 1.014105,-0.454077 1.558997,0.317853 0.544892,0.771931 0.363261,1.589269 l -0.03027,0.01514 q -0.151359,0.681115 -1.392502,1.36223 -1.801171,0.998969 -4.964572,0.968697 -2.270383,0 -4.389408,-2.028209 -2.103888,-2.028209 -2.103888,-4.919164 0,-2.90609 2.028209,-4.964571 2.043345,-2.043345 4.813213,-1.997938 2.769867,0.04541 4.798076,1.982802 2.02821,1.937394 2.02821,4.979707 z"
         id="path2475" />
      <path
         d="m 45.577088,54.489861 q 0.877881,-0.620571 3.193672,-0.620571 0.423805,0 0.650843,0.302717 0.227039,0.302718 0.151359,0.665979 l -0.302717,1.407638 q -0.211903,1.347094 -1.044377,1.226007 -1.392502,-0.227038 -2.482286,0.544892 -1.089784,0.77193 -1.104919,1.770899 v 0.03027 h -0.03027 v 5.857589 q 0,0.84761 -0.620572,1.483317 -0.620571,0.635707 -1.513589,0.635707 h -0.04541 q -0.877882,0 -1.498453,-0.605435 -0.605436,-0.620572 -0.605436,-1.513589 v -9.61129 q 0,-0.877881 0.635708,-1.513588 0.635707,-0.620572 1.498453,-0.620572 h 0.07568 q 1.10492,0 2.13416,1.574133 0.469213,-0.711387 0.908154,-1.014105 z"
         id="path2477" />
      <path
         d="m 62.256837,53.672523 q 0,0 0.03027,0 0.968697,0 1.604404,0.802202 0.620571,0.817338 0.272446,1.786035 -0.166495,0.454077 -4.313728,12.895777 -0.771931,2.315791 -2.648781,3.602342 -1.87685,1.301686 -4.359136,0.787066 -0.287582,-0.07568 -0.726523,-0.242174 -0.998968,-0.378397 -0.998968,-1.498453 v -0.03027 q 0,-0.302718 0.499484,-1.135192 0.33299,-0.499484 1.014105,-0.499484 0.696251,0 1.256278,-0.272446 1.301687,-0.635707 1.301687,-2.98177 v -0.04541 q -0.877882,-4.298592 -3.602342,-10.428627 -0.43894,-0.968697 0.136223,-1.861714 0.575164,-0.877882 1.634676,-0.877882 h 0.363262 q 0.302717,0 1.135191,0.363261 0.529756,0.272446 0.711387,0.968697 l 2.46715,8.733408 q 1.301686,-2.694188 2.315791,-8.688 0.09081,-0.51462 0.635707,-0.953561 0.544892,-0.423805 1.271415,-0.423805 z"
         id="path2479" />
      <path
         d="m 85.611512,57.017554 q 0,0 4.238049,0 0.771931,-0.03027 1.316823,0.529757 0.544892,0.544892 0.529756,1.316822 v 5.675958 q -0.03027,1.044377 -0.696251,1.87685 -0.665979,0.802203 -1.43791,0.953561 -0.77193,0.151359 -1.997937,0.348126 -1.226007,0.211902 -2.72446,0.211902 -5.055387,0 -7.779847,-2.618508 -2.739596,-2.618509 -2.769868,-6.796015 0.03027,-4.661853 3.148265,-7.32577 3.117993,-2.64878 7.870663,-2.64878 1.104919,0 4.419679,0.272446 0.665979,0.06054 1.059512,0.605435 0.711387,1.10492 0.242175,2.436878 l -0.03027,0.03027 q -0.544892,1.347094 -1.846579,1.241143 l -4.222913,-0.423805 q -3.420711,-0.332989 -4.782941,1.135192 -1.967665,2.073617 -1.680083,4.979707 0.227038,2.436878 2.103888,4.116962 1.891986,1.680084 4.525631,1.680084 h 0.756795 q 0.51462,0 0.983832,-0.469213 0.469213,-0.469212 0.469213,-0.968697 v -2.20984 q 0,-0.499484 -0.33299,-0.77193 -0.393533,-0.438941 -0.726522,-0.272446 l -0.877882,0.438941 q -1.044376,0.499484 -1.377366,-0.77193 v -0.03027 q -0.332989,-1.10492 0.272446,-1.87685 0.484349,-0.66598 1.347094,-0.66598 z"
         id="path2481" />
      <path
         d="m 100.47495,65.402837 q 1.24115,0 2.24012,-1.135192 0.8022,-0.923289 0.8022,-4.510495 -0.0151,-1.80117 -0.84761,-2.72446 -0.84761,-0.923289 -2.19471,-0.923289 -1.165459,0 -2.028205,0.968697 -1.02924,1.150328 -1.02924,2.679052 0.01514,3.390439 1.02924,4.510495 1.014105,1.120056 2.028205,1.135192 z m 5.16134,-9.762648 q 2.13416,2.119024 2.13416,5.11593 0,2.996906 -2.16443,5.131066 -2.1493,2.119025 -4.7224,2.103889 -0.2119,0.01514 -0.40867,0 -2.906087,0.121087 -5.10079,-2.058481 -2.179568,-2.179568 -2.179568,-5.19161 0.01514,-3.027178 2.119024,-5.131066 2.119024,-2.103889 4.737534,-2.088753 0.19677,-0.01514 0.40867,-0.01514 3.04231,0 5.17647,2.134161 z"
         id="path2483" />
      <path
         d="m 116.36764,65.402837 q 1.24114,0 2.24011,-1.135192 0.8022,-0.923289 0.8022,-4.510495 -0.0151,-1.80117 -0.84761,-2.72446 -0.84761,-0.923289 -2.1947,-0.923289 -1.16546,0 -2.02821,0.968697 -1.02924,1.150328 -1.02924,2.679052 0.0151,3.390439 1.02924,4.510495 1.0141,1.120056 2.02821,1.135192 z m 5.16134,-9.762648 q 2.13416,2.119024 2.13416,5.11593 0,2.996906 -2.16443,5.131066 -2.1493,2.119025 -4.7224,2.103889 -0.2119,0.01514 -0.40867,0 -2.90609,0.121087 -5.1008,-2.058481 -2.17956,-2.179568 -2.17956,-5.19161 0.0151,-3.027178 2.11902,-5.131066 2.11903,-2.103889 4.73753,-2.088753 0.19677,-0.01514 0.40867,-0.01514 3.04232,0 5.17648,2.134161 z"
         id="path2485" />
      <path
         d="m 129.50559,59.742014 q 0,0 0,1.816307 0,1.574133 0.81734,2.679052 0.83247,1.10492 2.05848,1.074649 0.66598,0.07568 1.37737,-0.136223 1.43791,-0.499485 1.46818,-2.179568 0,0 0,-5.115931 -0.30272,-0.862746 -1.60441,-1.347094 -1.30168,-0.499484 -2.67905,0.166495 -0.66598,0.302718 -1.05951,1.150327 -0.3784,0.862746 -0.3784,1.891986 z m 2.48229,-5.88786 q 1.71035,0 3.23908,0.877881 v -4.555902 q -0.0151,-0.877882 0.62057,-1.513589 0.63571,-0.635708 1.52872,-0.635708 h 0.0606 q 0.87788,0 1.51359,0.635708 0.6357,0.635707 0.6357,1.513589 v 16.770565 q 0.0303,0.332989 -0.25731,0.605435 -0.27244,0.272446 -0.6357,0.272446 h -2.58824 q -0.39353,0 -0.65084,-0.272446 -0.25731,-0.272446 -0.22704,-0.605435 -1.51359,0.877881 -3.23908,0.877881 -2.75473,0 -4.69213,-2.043345 -1.93739,-2.043345 -1.93739,-4.9343 0,-2.90609 1.93739,-4.949435 1.9374,-2.043345 4.69213,-2.043345 z"
         id="path2487" />
      <path
         d="m 145.5799,50.145861 q 0,0 -0.46922,9.066397 -0.0605,0.711387 -0.54489,1.1806 -0.52975,0.469212 -1.24114,0.469212 -0.71139,0 -1.25628,-0.469212 -0.49948,-0.469213 -0.54489,-1.1806 l -0.46921,-9.066397 q -0.0303,-0.77193 0.49948,-1.316822 0.49949,-0.544892 1.27142,-0.560028 h 0.98383 q 0.77193,0 1.27141,0.560028 0.56003,0.544892 0.49949,1.316822 z m -0.43894,16.906788 q -0.71139,0.77193 -1.80117,0.77193 -1.07465,0 -1.84658,-0.756794 -0.77193,-0.756795 -0.77193,-1.816307 0,-1.059512 0.77193,-1.831443 0.77193,-0.787066 1.84658,-0.787066 1.07464,0 1.80117,0.771931 0.77193,0.741658 0.77193,1.831442 0,1.074648 -0.77193,1.816307 z"
         id="path2489" />
    </g>
  </g>
</svg>
