<?xml version="1.0" encoding="utf-8"?>
<!-- Generator: Adobe Illustrator 27.6.1, SVG Export Plug-In . SVG Version: 6.00 Build 0)  -->
<svg version="1.1" id="Layer_1" xmlns="http://www.w3.org/2000/svg" x="0px" y="0px"
     viewBox="0 0 500 500" style="enable-background:new 0 0 500 500;" xml:space="preserve">
<style type="text/css">
	.st0{fill:#97D5A4;}
	.st1{fill:#30569F;}
	.st2{fill:#26457C;}
	.st3{fill:#F1AF58;}
	.st4{fill:#FFD064;}
	.st5{fill:#FFFFFF;}
	.st6{fill:#DDDBEE;}
	.st7{fill:#396484;}
	.st8{fill:#C53E4F;}
	.st9{fill:#DA4D56;}
	.st10{fill:#365A7C;}
	.st11{fill:#006601;}
</style>
<circle class="st0" cx="250" cy="250" r="243.05"/>
<g>
	<g>
		<g>
			<path class="st1" d="M325.67,355.64c3.62,2.89,0.31,9.1-3.7,6.95l-217.9-115.11c-13.49-7.24-18.47-25.7-10.5-38.99l0,0
				c7.36-12.27,22.77-15,34.02-6.01L325.67,355.64z"/>
			<path class="st2" d="M328.86,351.59c2.54,2.67-0.62,7.12-3.53,4.98L117.05,204.32c-12.41-9.1-15.02-28.06-5.52-40.03l0,0
				c8.77-11.06,24.3-11.51,34.29-1.01L328.86,351.59z"/>
			<path class="st1" d="M334.09,347.59c2.45,3.52-1.83,7.92-4.78,4.92L146.85,168.36c-11.07-11.24-11.09-30.52-0.04-40.71l0,0
				c10.2-9.41,25.66-7.11,34.14,5.09L334.09,347.59z"/>
			<path class="st1" d="M352.34,340.68L307.97,94.6c-2.44-15.32,7.91-29.47,21.87-29.88l0.64-0.02c13.39-0.4,24.3,11.51,24.23,26.29
				c-0.25,54.34,5.14,182.48,4.85,249.02C359.54,344.94,353.11,345.54,352.34,340.68z"/>
			<path class="st2" d="M353.15,340.19c0.79,4.88-5.45,6.78-6.99,2.13l-83.64-238.19c-5.15-15.53,2.84-32.52,16.86-35.88l0,0
				c12.95-3.1,25.7,6.79,28.15,21.85L353.15,340.19z"/>
			<path class="st2" d="M339.61,344.36c1.88,3.85-2.89,7.38-5.35,3.95l-152.48-210.6c-9.26-12.94-6.47-31.87,5.9-39.96l0,0
				c11.42-7.48,26.31-2.54,32.88,10.9L339.61,344.36z"/>
			<path class="st1" d="M346.2,341.14c1.48,4.68-4.42,7.66-6.6,3.34L220.87,113.4c-7.35-14.54-1.94-32.85,11.41-38.67l0,0
				c12.34-5.37,26.37,2.22,30.99,16.77L346.2,341.14z"/>
		</g>
		<g>
			<path class="st3" d="M248.97,464.17L16.49,294.89c-13.73-10-16.76-29.24-6.76-42.97l49.47-67.94
				c10.73-14.74,31.37-17.98,46.11-7.25l228.85,166.63c14.74,10.73,17.98,31.37,7.25,46.11l-49.47,67.94
				C281.94,471.14,262.7,474.17,248.97,464.17z"/>
			<path class="st4" d="M255.93,456.54L21.61,285.92c-13.23-9.63-16.14-28.16-6.51-41.38l44.55-61.18
				c10.33-14.19,30.21-17.32,44.41-6.99l230.82,168.07c14.19,10.33,17.32,30.21,6.99,44.41l-44.55,61.18
				C287.68,463.26,269.16,466.17,255.93,456.54z"/>
			<path class="st5" d="M233.53,443.61L40.79,303.28c-10.9-7.94-13.3-23.21-5.37-34.11l42.49-58.35L310.13,379.9l-42.49,58.35
				C259.7,449.15,244.43,451.55,233.53,443.61z"/>

				<rect x="40.54" y="289.73" transform="matrix(0.5886 -0.8084 0.8084 0.5886 -214.8877 166.9612)" class="st6" width="32.12" height="9.77"/>

				<rect x="109.55" y="339.98" transform="matrix(0.5886 -0.8084 0.8084 0.5886 -227.1185 243.4219)" class="st6" width="32.12" height="9.77"/>

				<rect x="144.3" y="365.27" transform="matrix(0.5886 -0.8084 0.8084 0.5886 -233.2699 281.9136)" class="st6" width="32.12" height="9.77"/>

				<rect x="215.1" y="416.82" transform="matrix(0.5886 -0.8084 0.8084 0.5886 -245.8169 360.3571)" class="st6" width="32.12" height="9.77"/>

				<rect x="60.46" y="287.86" transform="matrix(0.5886 -0.8084 0.8084 0.5886 -191.9386 208.3149)" class="st6" width="96.5" height="9.77"/>

				<rect x="166.27" y="364.89" transform="matrix(0.5886 -0.8084 0.8084 0.5886 -210.6817 325.5391)" class="st6" width="96.5" height="9.77"/>
			<path class="st7" d="M66.06,285.9l-5.38-3.92c-5.78-4.21-7.05-12.3-2.84-18.07L90,219.74l26.3,19.15l-32.16,44.17
				C79.92,288.84,71.83,290.11,66.06,285.9z"/>
			<path class="st7" d="M136.29,337.05l-5.38-3.92c-5.78-4.21-7.05-12.3-2.84-18.07l32.16-44.17l26.3,19.15l-32.16,44.17
				C150.16,339.98,142.07,341.25,136.29,337.05z"/>
			<path class="st7" d="M172.13,363.14l-5.38-3.92c-5.78-4.21-7.05-12.3-2.84-18.07l32.16-44.17l26.3,19.15l-32.16,44.17
				C186,366.08,177.91,367.35,172.13,363.14z"/>
			<path class="st7" d="M241.5,413.65l-5.38-3.92c-5.78-4.21-7.05-12.3-2.84-18.07l32.16-44.17l26.3,19.15l-32.16,44.17
				C255.37,416.59,247.28,417.86,241.5,413.65z"/>
		</g>
		<g>
			<path class="st8" d="M465.33,377.38H379.5c-17.03,0-30.83-13.8-30.83-30.83V60.77c0-17.03,13.8-30.83,30.83-30.83h85.83
				c17.03,0,30.83,13.8,30.83,30.83v285.78C496.16,363.58,482.36,377.38,465.33,377.38z"/>
			<path class="st9" d="M390.1,376.4h69.84V30.55H390.1c-14.43,0-26.13,11.7-26.13,26.13v293.59
				C363.97,364.7,375.66,376.4,390.1,376.4z"/>
			<path class="st10" d="M396.17,339.45h64.15V63.6h-64.15c-13.79,0-24.97,11.18-24.97,24.97v225.91
				C371.2,328.27,382.38,339.45,396.17,339.45z"/>
			<g>
				<circle class="st5" cx="397.97" cy="97.4" r="14.1"/>
				<circle class="st5" cx="434.54" cy="97.4" r="14.1"/>
			</g>
			<g>
				<circle class="st5" cx="397.97" cy="139.25" r="14.1"/>
				<circle class="st5" cx="434.54" cy="139.25" r="14.1"/>
			</g>
			<g>
				<circle class="st5" cx="397.97" cy="181.1" r="14.1"/>
				<circle class="st5" cx="434.54" cy="181.1" r="14.1"/>
			</g>
			<g>
				<circle class="st5" cx="397.97" cy="222.94" r="14.1"/>
				<circle class="st5" cx="434.54" cy="222.94" r="14.1"/>
			</g>
			<g>
				<circle class="st5" cx="397.97" cy="264.79" r="14.1"/>
				<circle class="st5" cx="434.54" cy="264.79" r="14.1"/>
			</g>
			<g>
				<circle class="st5" cx="397.97" cy="306.64" r="14.1"/>
				<circle class="st5" cx="434.54" cy="306.64" r="14.1"/>
			</g>
		</g>
	</g>
	<g>
		<path class="st11" d="M352.44,414.21c-10.2,12.86-10.5,32.59-4.5,47.29c6.1,14.94,23.76,23.37,39.33,22.53
			c8.42-0.45,16.47-3.09,24.91-1.75c8.6,1.37,17.21,2.23,25.92,1.39c12.48-1.2,30.15-7.08,33.11-21.25
			c1.69-8.09,1.26-17.72,1.05-25.97c-0.29-11.47-0.72-27.95-12.56-33.75c-8.16-4-18.27-3.87-27.13-3.45
			c-9.84,0.47-20.6,4.07-30.34,2.58c-15.72-2.42-32.62-3.17-45.49,7.91C355.14,411.12,353.71,412.61,352.44,414.21z"/>
		<g>
			<path class="st5" d="M406.38,440.84c0,15.24-9.84,23.31-21.85,23.31c-12.43,0-21.15-9.06-21.15-22.46
				c0-14.05,9.29-23.25,21.85-23.25C398.07,418.44,406.38,427.7,406.38,440.84z M369.87,441.56c0,9.46,5.45,17.93,15.01,17.93
				c9.63,0,15.08-8.34,15.08-18.39c0-8.8-4.89-18-15.01-18C374.9,423.1,369.87,431.84,369.87,441.56z"/>
			<path class="st5" d="M414.27,463.43v-44.26h6.63l15.08,22.39c3.49,5.19,6.21,9.85,8.45,14.38l0.14-0.07
				c-0.56-5.91-0.7-11.3-0.7-18.19v-18.52h5.72v44.26h-6.14l-14.94-22.46c-3.28-4.92-6.42-9.98-8.8-14.78l-0.21,0.07
				c0.35,5.58,0.49,10.9,0.49,18.26v18.91H414.27z"/>
		</g>
	</g>
</g>
</svg>
