<?xml version="1.0" encoding="utf-8"?>
<!-- Generator: Adobe Illustrator 27.6.1, SVG Export Plug-In . SVG Version: 6.00 Build 0)  -->
<svg version="1.1" id="Layer_1" xmlns="http://www.w3.org/2000/svg" x="0px" y="0px"
     viewBox="0 0 500 500" style="enable-background:new 0 0 500 500;" xml:space="preserve">
<style type="text/css">
	.st0{fill:#97D5A4;}
	.st1{fill:#30569F;}
	.st2{fill:#26457C;}
	.st3{fill:#F1AF58;}
	.st4{fill:#FFD064;}
	.st5{fill:#FFFFFF;}
	.st6{fill:#DDDBEE;}
	.st7{fill:#396484;}
	.st8{fill:#C53E4F;}
	.st9{fill:#DA4D56;}
	.st10{fill:#365A7C;}
</style>
<circle class="st0" cx="250" cy="250" r="243.05"/>
<g>
	<g>
		<path class="st1" d="M325.67,355.64c3.62,2.89,0.31,9.1-3.7,6.95l-217.9-115.11c-13.49-7.24-18.47-25.7-10.5-38.99l0,0
			c7.36-12.27,22.77-15,34.02-6.01L325.67,355.64z"/>
		<path class="st2" d="M328.86,351.59c2.54,2.67-0.62,7.12-3.53,4.98L117.05,204.32c-12.41-9.1-15.02-28.06-5.52-40.03l0,0
			c8.77-11.06,24.3-11.51,34.29-1.01L328.86,351.59z"/>
		<path class="st1" d="M334.09,347.59c2.45,3.52-1.83,7.92-4.78,4.92L146.85,168.36c-11.07-11.24-11.09-30.52-0.04-40.71l0,0
			c10.2-9.41,25.66-7.11,34.14,5.09L334.09,347.59z"/>
		<path class="st1" d="M352.34,340.68L307.97,94.6c-2.44-15.32,7.91-29.47,21.87-29.88l0.64-0.02c13.39-0.4,24.3,11.51,24.23,26.29
			c-0.25,54.34,5.14,182.48,4.85,249.02C359.54,344.94,353.11,345.54,352.34,340.68z"/>
		<path class="st2" d="M353.15,340.19c0.79,4.88-5.45,6.78-6.99,2.13l-83.64-238.19c-5.15-15.53,2.84-32.52,16.86-35.88l0,0
			c12.95-3.1,25.7,6.79,28.15,21.85L353.15,340.19z"/>
		<path class="st2" d="M339.61,344.36c1.88,3.85-2.89,7.38-5.35,3.95L181.78,137.71c-9.26-12.94-6.47-31.87,5.9-39.96l0,0
			c11.42-7.48,26.31-2.54,32.88,10.9L339.61,344.36z"/>
		<path class="st1" d="M346.2,341.14c1.48,4.68-4.42,7.66-6.6,3.34L220.87,113.4c-7.35-14.54-1.94-32.85,11.41-38.67l0,0
			c12.34-5.37,26.37,2.22,30.99,16.77L346.2,341.14z"/>
	</g>
	<g>
		<path class="st3" d="M248.97,464.17L16.49,294.89c-13.73-10-16.76-29.24-6.76-42.97l49.47-67.94
			c10.73-14.74,31.37-17.98,46.11-7.25l228.85,166.63c14.74,10.73,17.98,31.37,7.25,46.11l-49.47,67.94
			C281.94,471.14,262.7,474.17,248.97,464.17z"/>
		<path class="st4" d="M255.93,456.54L21.61,285.92c-13.23-9.63-16.14-28.16-6.51-41.38l44.55-61.18
			c10.33-14.19,30.21-17.32,44.41-6.99l230.82,168.07c14.19,10.33,17.32,30.21,6.99,44.41l-44.55,61.18
			C287.68,463.26,269.16,466.17,255.93,456.54z"/>
		<path class="st5" d="M233.53,443.61L40.79,303.28c-10.9-7.94-13.3-23.21-5.37-34.11l42.49-58.35L310.13,379.9l-42.49,58.35
			C259.7,449.15,244.43,451.55,233.53,443.61z"/>

			<rect x="51.71" y="278.56" transform="matrix(0.8084 0.5886 -0.5886 0.8084 184.2651 23.135)" class="st6" width="9.77" height="32.12"/>

			<rect x="120.72" y="328.81" transform="matrix(0.8084 0.5886 -0.5886 0.8084 227.0653 -7.8587)" class="st6" width="9.77" height="32.12"/>

			<rect x="155.46" y="354.1" transform="matrix(0.8084 0.5886 -0.5886 0.8084 248.6114 -23.4612)" class="st6" width="9.77" height="32.12"/>

			<rect x="226.26" y="405.65" transform="matrix(0.8084 0.5886 -0.5886 0.8084 292.5198 -55.2573)" class="st6" width="9.77" height="32.12"/>

			<rect x="103.82" y="244.5" transform="matrix(0.8084 0.5886 -0.5886 0.8084 193.1452 -7.8969)" class="st6" width="9.77" height="96.5"/>

			<rect x="209.62" y="321.53" transform="matrix(0.8084 0.5886 -0.5886 0.8084 258.7629 -55.4138)" class="st6" width="9.77" height="96.5"/>
		<path class="st7" d="M66.06,285.9l-5.38-3.92c-5.78-4.21-7.05-12.3-2.84-18.07l32.16-44.17l26.3,19.15l-32.16,44.17
			C79.92,288.84,71.83,290.11,66.06,285.9z"/>
		<path class="st7" d="M136.29,337.05l-5.38-3.92c-5.78-4.21-7.05-12.3-2.84-18.07l32.16-44.17l26.3,19.15l-32.16,44.17
			C150.16,339.98,142.07,341.25,136.29,337.05z"/>
		<path class="st7" d="M172.13,363.14l-5.38-3.92c-5.78-4.21-7.05-12.3-2.84-18.07l32.16-44.17l26.3,19.15l-32.16,44.17
			C186,366.08,177.91,367.35,172.13,363.14z"/>
		<path class="st7" d="M241.5,413.65l-5.38-3.92c-5.78-4.21-7.05-12.3-2.84-18.07l32.16-44.17l26.3,19.15l-32.16,44.17
			C255.37,416.59,247.28,417.86,241.5,413.65z"/>
	</g>
	<g>
		<path class="st8" d="M465.33,377.38h-85.83c-17.03,0-30.83-13.8-30.83-30.83V60.77c0-17.03,13.8-30.83,30.83-30.83h85.83
			c17.03,0,30.83,13.8,30.83,30.83v285.78C496.16,363.58,482.36,377.38,465.33,377.38z"/>
		<path class="st9" d="M390.1,376.4h69.84V30.55H390.1c-14.43,0-26.13,11.7-26.13,26.13v293.59
			C363.97,364.7,375.66,376.4,390.1,376.4z"/>
		<path class="st10" d="M396.17,339.45h64.15V63.6h-64.15c-13.79,0-24.97,11.18-24.97,24.97v225.91
			C371.2,328.27,382.38,339.45,396.17,339.45z"/>
		<g>
			<circle class="st5" cx="397.97" cy="97.4" r="14.1"/>
			<circle class="st5" cx="434.54" cy="97.4" r="14.1"/>
		</g>
		<g>
			<circle class="st5" cx="397.97" cy="139.25" r="14.1"/>
			<circle class="st5" cx="434.54" cy="139.25" r="14.1"/>
		</g>
		<g>
			<circle class="st5" cx="397.97" cy="181.1" r="14.1"/>
			<circle class="st5" cx="434.54" cy="181.1" r="14.1"/>
		</g>
		<g>
			<circle class="st5" cx="397.97" cy="222.94" r="14.1"/>
			<circle class="st5" cx="434.54" cy="222.94" r="14.1"/>
		</g>
		<g>
			<circle class="st5" cx="397.97" cy="264.79" r="14.1"/>
			<circle class="st5" cx="434.54" cy="264.79" r="14.1"/>
		</g>
		<g>
			<circle class="st5" cx="397.97" cy="306.64" r="14.1"/>
			<circle class="st5" cx="434.54" cy="306.64" r="14.1"/>
		</g>
	</g>
</g>
</svg>
